<svg xmlns="http://www.w3.org/2000/svg" viewBox="0 0 392.16 303.92"><defs><style>.cls-1{fill:#88d5ed;}.cls-2{fill:#c8ff16;}.cls-3{fill:#7e39ba;}.cls-4{fill:#01d1d0;}.cls-5{fill:#6d64cc;}.cls-6{fill:#4701a7;}.cls-7{fill:#ff931e;}.cls-8{fill:#ff7e83;}.cls-9{fill:#15636b;}.cls-10{fill:#ff6327;}</style></defs><title>bug3</title><g id="Layer_2" data-name="Layer 2"><g id="Layer_1-2" data-name="Layer 1"><rect class="cls-1" x="29.41" y="107.84" width="9.81" height="9.8"/><rect class="cls-1" x="29.41" y="88.23" width="9.81" height="9.8"/><rect class="cls-1" x="19.61" y="98.03" width="9.8" height="9.81"/><rect class="cls-1" x="29.41" y="117.64" width="9.81" height="9.81"/><rect class="cls-1" x="19.61" y="107.84" width="9.8" height="9.8"/><rect class="cls-1" x="39.22" y="117.64" width="9.8" height="9.81"/><rect class="cls-1" x="19.61" y="88.23" width="9.8" height="9.8"/><rect class="cls-1" x="19.61" y="117.64" width="9.8" height="9.81"/><rect class="cls-2" x="29.41" y="98.03" width="9.81" height="9.81"/><rect class="cls-2" x="39.22" y="88.23" width="9.8" height="9.8"/><rect class="cls-2" x="39.22" y="98.03" width="9.8" height="9.81"/><rect class="cls-2" x="39.22" y="107.84" width="9.8" height="9.8"/><rect class="cls-3" x="382.35" y="117.64" width="9.81" height="9.81"/><rect class="cls-3" x="382.35" y="107.84" width="9.81" height="9.8"/><rect class="cls-3" x="382.35" y="98.03" width="9.81" height="9.81"/><rect class="cls-3" x="382.35" y="88.23" width="9.81" height="9.8"/><rect class="cls-3" x="372.55" y="127.45" width="9.8" height="9.8"/><rect class="cls-4" x="372.55" y="117.64" width="9.8" height="9.81"/><rect class="cls-4" x="372.55" y="107.84" width="9.8" height="9.8"/><rect class="cls-4" x="372.55" y="98.03" width="9.8" height="9.81"/><rect class="cls-4" x="372.55" y="88.23" width="9.8" height="9.8"/><rect class="cls-3" x="372.55" y="78.43" width="9.8" height="9.8"/><rect class="cls-5" x="362.75" y="137.25" width="9.8" height="9.8"/><rect class="cls-4" x="362.75" y="127.45" width="9.8" height="9.8"/><rect class="cls-1" x="362.75" y="117.64" width="9.8" height="9.81"/><rect class="cls-1" x="362.75" y="107.84" width="9.8" height="9.8"/><rect class="cls-1" x="362.75" y="98.03" width="9.8" height="9.81"/><rect class="cls-1" x="362.75" y="88.23" width="9.8" height="9.8"/><rect class="cls-4" x="362.75" y="78.43" width="9.8" height="9.8"/><rect class="cls-5" x="362.75" y="68.62" width="9.8" height="9.81"/><rect class="cls-5" x="352.94" y="137.25" width="9.81" height="9.8"/><rect class="cls-4" x="352.94" y="127.45" width="9.81" height="9.8"/><rect class="cls-1" x="352.94" y="117.64" width="9.81" height="9.81"/><rect class="cls-1" x="352.94" y="107.84" width="9.81" height="9.8"/><rect class="cls-2" x="352.94" y="98.03" width="9.81" height="9.81"/><rect class="cls-1" x="352.94" y="88.23" width="9.81" height="9.8"/><rect class="cls-4" x="352.94" y="78.43" width="9.81" height="9.8"/><rect class="cls-5" x="352.94" y="68.62" width="9.81" height="9.81"/><rect class="cls-5" x="343.14" y="127.45" width="9.8" height="9.8"/><rect class="cls-1" x="343.14" y="117.64" width="9.8" height="9.81"/><rect class="cls-2" x="343.14" y="107.84" width="9.8" height="9.8"/><rect class="cls-2" x="343.14" y="98.03" width="9.8" height="9.81"/><rect class="cls-2" x="343.14" y="88.23" width="9.8" height="9.8"/><rect class="cls-5" x="343.14" y="78.43" width="9.8" height="9.8"/><rect class="cls-5" x="343.14" y="68.62" width="9.8" height="9.81"/><rect class="cls-5" x="333.33" y="127.45" width="9.81" height="9.8"/><rect class="cls-3" x="333.33" y="117.64" width="9.81" height="9.81"/><rect class="cls-3" x="333.33" y="107.84" width="9.81" height="9.8"/><rect class="cls-3" x="333.33" y="98.03" width="9.81" height="9.81"/><rect class="cls-3" x="333.33" y="88.23" width="9.81" height="9.8"/><rect class="cls-5" x="333.33" y="78.43" width="9.81" height="9.8"/><rect class="cls-6" x="333.33" y="19.6" width="9.81" height="9.81"/><rect class="cls-6" x="333.33" y="9.8" width="9.81" height="9.8"/><rect class="cls-5" x="323.53" y="127.45" width="9.8" height="9.8"/><rect class="cls-5" x="323.53" y="117.64" width="9.8" height="9.81"/><rect class="cls-6" x="323.53" y="107.84" width="9.8" height="9.8"/><rect class="cls-6" x="323.53" y="98.03" width="9.8" height="9.81"/><rect class="cls-5" x="323.53" y="88.23" width="9.8" height="9.8"/><rect class="cls-5" x="323.53" y="78.43" width="9.8" height="9.8"/><rect class="cls-6" x="323.53" y="9.8" width="9.8" height="9.8"/><rect class="cls-5" x="313.73" y="127.45" width="9.8" height="9.8"/><rect class="cls-5" x="313.73" y="117.64" width="9.8" height="9.81"/><rect class="cls-6" x="313.73" y="107.84" width="9.8" height="9.8"/><rect class="cls-6" x="313.73" y="98.03" width="9.8" height="9.81"/><rect class="cls-5" x="313.73" y="88.23" width="9.8" height="9.8"/><rect class="cls-5" x="313.73" y="78.43" width="9.8" height="9.8"/><rect class="cls-6" x="313.73" y="9.8" width="9.8" height="9.8"/><rect class="cls-6" x="313.73" width="9.8" height="9.8"/><rect class="cls-5" x="303.92" y="127.45" width="9.81" height="9.8"/><rect class="cls-5" x="303.92" y="117.64" width="9.81" height="9.81"/><rect class="cls-3" x="303.92" y="107.84" width="9.81" height="9.8"/><rect class="cls-3" x="303.92" y="98.03" width="9.81" height="9.81"/><rect class="cls-5" x="303.92" y="88.23" width="9.81" height="9.8"/><rect class="cls-5" x="303.92" y="78.43" width="9.81" height="9.8"/><rect class="cls-6" x="303.92" width="9.81" height="9.8"/><rect class="cls-6" x="294.12" y="127.45" width="9.8" height="9.8"/><rect class="cls-5" x="294.12" y="117.64" width="9.8" height="9.81"/><rect class="cls-3" x="294.12" y="107.84" width="9.8" height="9.8"/><rect class="cls-3" x="294.12" y="98.03" width="9.8" height="9.81"/><rect class="cls-5" x="294.12" y="88.23" width="9.8" height="9.8"/><rect class="cls-6" x="294.12" y="78.43" width="9.8" height="9.8"/><rect class="cls-6" x="294.12" y="9.8" width="9.8" height="9.8"/><rect class="cls-6" x="294.12" width="9.8" height="9.8"/><rect class="cls-6" x="284.31" y="127.45" width="9.81" height="9.8"/><rect class="cls-3" x="284.31" y="117.64" width="9.81" height="9.81"/><rect class="cls-6" x="284.31" y="107.84" width="9.81" height="9.8"/><rect class="cls-6" x="284.31" y="98.03" width="9.81" height="9.81"/><rect class="cls-3" x="284.31" y="88.23" width="9.81" height="9.8"/><rect class="cls-6" x="284.31" y="78.43" width="9.81" height="9.8"/><rect class="cls-6" x="284.31" y="9.8" width="9.81" height="9.8"/><rect class="cls-6" x="274.51" y="127.45" width="9.8" height="9.8"/><rect class="cls-6" x="274.51" y="117.64" width="9.8" height="9.81"/><rect class="cls-6" x="274.51" y="107.84" width="9.8" height="9.8"/><rect class="cls-6" x="274.51" y="98.03" width="9.8" height="9.81"/><rect class="cls-6" x="274.51" y="88.23" width="9.8" height="9.8"/><rect class="cls-6" x="274.51" y="78.43" width="9.8" height="9.8"/><rect class="cls-6" x="274.51" y="19.6" width="9.8" height="9.81"/><rect class="cls-6" x="274.51" y="9.8" width="9.8" height="9.8"/><rect class="cls-6" x="264.71" y="137.25" width="9.8" height="9.8"/><rect class="cls-6" x="264.71" y="127.45" width="9.8" height="9.8"/><rect class="cls-7" x="264.71" y="117.64" width="9.8" height="9.81"/><rect class="cls-7" x="264.71" y="107.84" width="9.8" height="9.8"/><rect class="cls-6" x="264.71" y="98.03" width="9.8" height="9.81"/><rect class="cls-6" x="264.71" y="88.23" width="9.8" height="9.8"/><rect class="cls-6" x="264.71" y="78.43" width="9.8" height="9.8"/><rect class="cls-6" x="264.71" y="19.6" width="9.8" height="9.81"/><rect class="cls-6" x="254.9" y="147.05" width="9.81" height="9.81"/><rect class="cls-7" x="254.9" y="137.25" width="9.81" height="9.8"/><rect class="cls-8" x="254.9" y="127.45" width="9.81" height="9.8"/><rect class="cls-6" x="254.9" y="117.64" width="9.81" height="9.81"/><rect class="cls-6" x="254.9" y="107.84" width="9.81" height="9.8"/><rect class="cls-7" x="254.9" y="98.03" width="9.81" height="9.81"/><rect class="cls-6" x="254.9" y="88.23" width="9.81" height="9.8"/><rect class="cls-6" x="254.9" y="78.43" width="9.81" height="9.8"/><rect class="cls-6" x="254.9" y="68.62" width="9.81" height="9.81"/><rect class="cls-6" x="254.9" y="29.41" width="9.81" height="9.8"/><rect class="cls-6" x="254.9" y="19.6" width="9.81" height="9.81"/><rect class="cls-6" x="245.1" y="156.86" width="9.8" height="9.8"/><rect class="cls-6" x="245.1" y="147.05" width="9.8" height="9.81"/><rect class="cls-6" x="245.1" y="137.25" width="9.8" height="9.8"/><rect class="cls-9" x="245.1" y="127.45" width="9.8" height="9.8"/><rect class="cls-9" x="245.1" y="117.64" width="9.8" height="9.81"/><rect class="cls-6" x="245.1" y="107.84" width="9.8" height="9.8"/><rect class="cls-6" x="245.1" y="98.03" width="9.8" height="9.81"/><rect class="cls-7" x="245.1" y="88.23" width="9.8" height="9.8"/><rect class="cls-6" x="245.1" y="78.43" width="9.8" height="9.8"/><rect class="cls-6" x="245.1" y="68.62" width="9.8" height="9.81"/><rect class="cls-6" x="245.1" y="49.01" width="9.8" height="9.81"/><rect class="cls-6" x="245.1" y="39.21" width="9.8" height="9.8"/><rect class="cls-6" x="245.1" y="29.41" width="9.8" height="9.8"/><rect class="cls-6" x="235.29" y="294.11" width="9.81" height="9.81"/><rect class="cls-6" x="235.29" y="284.31" width="9.81" height="9.8"/><rect class="cls-6" x="235.29" y="274.51" width="9.81" height="9.8"/><rect class="cls-6" x="235.29" y="264.7" width="9.81" height="9.81"/><rect class="cls-6" x="235.29" y="254.9" width="9.81" height="9.8"/><rect class="cls-6" x="235.29" y="245.09" width="9.81" height="9.81"/><rect class="cls-6" x="235.29" y="166.66" width="9.81" height="9.81"/><rect class="cls-6" x="235.29" y="156.86" width="9.81" height="9.8"/><rect class="cls-6" x="235.29" y="147.05" width="9.81" height="9.81"/><rect class="cls-9" x="235.29" y="137.25" width="9.81" height="9.8"/><rect class="cls-9" x="235.29" y="127.45" width="9.81" height="9.8"/><rect class="cls-9" x="235.29" y="117.64" width="9.81" height="9.81"/><rect class="cls-6" x="235.29" y="107.84" width="9.81" height="9.8"/><rect class="cls-6" x="235.29" y="98.03" width="9.81" height="9.81"/><rect class="cls-6" x="235.29" y="88.23" width="9.81" height="9.8"/><rect class="cls-6" x="235.29" y="78.43" width="9.81" height="9.8"/><rect class="cls-6" x="235.29" y="68.62" width="9.81" height="9.81"/><rect class="cls-6" x="235.29" y="58.82" width="9.81" height="9.8"/><rect class="cls-6" x="235.29" y="49.01" width="9.81" height="9.81"/><rect class="cls-6" x="225.49" y="264.7" width="9.8" height="9.81"/><rect class="cls-6" x="225.49" y="254.9" width="9.8" height="9.8"/><rect class="cls-6" x="225.49" y="245.09" width="9.8" height="9.81"/><rect class="cls-6" x="225.49" y="235.29" width="9.8" height="9.8"/><rect class="cls-6" x="225.49" y="225.49" width="9.8" height="9.8"/><rect class="cls-6" x="225.49" y="215.68" width="9.8" height="9.81"/><rect class="cls-6" x="225.49" y="205.88" width="9.8" height="9.8"/><rect class="cls-6" x="225.49" y="196.07" width="9.8" height="9.81"/><rect class="cls-6" x="225.49" y="176.47" width="9.8" height="9.8"/><rect class="cls-6" x="225.49" y="166.66" width="9.8" height="9.81"/><rect class="cls-6" x="225.49" y="156.86" width="9.8" height="9.8"/><rect class="cls-9" x="225.49" y="147.05" width="9.8" height="9.81"/><rect class="cls-9" x="225.49" y="137.25" width="9.8" height="9.8"/><rect class="cls-9" x="225.49" y="127.45" width="9.8" height="9.8"/><rect class="cls-9" x="225.49" y="117.64" width="9.8" height="9.81"/><rect class="cls-9" x="225.49" y="107.84" width="9.8" height="9.8"/><rect class="cls-1" x="225.49" y="98.03" width="9.8" height="9.81"/><rect class="cls-1" x="225.49" y="88.23" width="9.8" height="9.8"/><rect class="cls-6" x="225.49" y="78.43" width="9.8" height="9.8"/><rect class="cls-6" x="225.49" y="68.62" width="9.8" height="9.81"/><rect class="cls-6" x="225.49" y="58.82" width="9.8" height="9.8"/><rect class="cls-6" x="215.69" y="205.88" width="9.8" height="9.8"/><rect class="cls-6" x="215.69" y="196.07" width="9.8" height="9.81"/><rect class="cls-6" x="215.69" y="186.27" width="9.8" height="9.8"/><rect class="cls-6" x="215.69" y="176.47" width="9.8" height="9.8"/><rect class="cls-6" x="215.69" y="166.66" width="9.8" height="9.81"/><rect class="cls-9" x="215.69" y="156.86" width="9.8" height="9.8"/><rect class="cls-9" x="215.69" y="147.05" width="9.8" height="9.81"/><rect class="cls-9" x="215.69" y="137.25" width="9.8" height="9.8"/><rect class="cls-6" x="215.69" y="127.45" width="9.8" height="9.8"/><rect class="cls-9" x="215.69" y="117.64" width="9.8" height="9.81"/><rect class="cls-9" x="215.69" y="107.84" width="9.8" height="9.8"/><rect class="cls-9" x="215.69" y="98.03" width="9.8" height="9.81"/><rect class="cls-1" x="215.69" y="88.23" width="9.8" height="9.8"/><rect class="cls-6" x="215.69" y="78.43" width="9.8" height="9.8"/><rect class="cls-6" x="215.69" y="68.62" width="9.8" height="9.81"/><rect class="cls-6" x="215.69" y="58.82" width="9.8" height="9.8"/><rect class="cls-9" x="205.88" y="186.27" width="9.81" height="9.8"/><rect class="cls-9" x="205.88" y="176.47" width="9.81" height="9.8"/><rect class="cls-9" x="205.88" y="166.66" width="9.81" height="9.81"/><rect class="cls-9" x="205.88" y="156.86" width="9.81" height="9.8"/><rect class="cls-9" x="205.88" y="147.05" width="9.81" height="9.81"/><rect class="cls-9" x="205.88" y="137.25" width="9.81" height="9.8"/><rect class="cls-9" x="205.88" y="127.45" width="9.81" height="9.8"/><rect class="cls-9" x="205.88" y="117.64" width="9.81" height="9.81"/><rect class="cls-9" x="205.88" y="107.84" width="9.81" height="9.8"/><rect class="cls-9" x="205.88" y="98.03" width="9.81" height="9.81"/><rect class="cls-9" x="205.88" y="88.23" width="9.81" height="9.8"/><rect class="cls-6" x="205.88" y="78.43" width="9.81" height="9.8"/><rect class="cls-6" x="205.88" y="68.62" width="9.81" height="9.81"/><rect class="cls-6" x="205.88" y="58.82" width="9.81" height="9.8"/><rect class="cls-2" x="196.08" y="264.7" width="9.8" height="9.81"/><rect class="cls-2" x="196.08" y="254.9" width="9.8" height="9.8"/><rect class="cls-2" x="196.08" y="245.09" width="9.8" height="9.81"/><rect class="cls-2" x="196.08" y="235.29" width="9.8" height="9.8"/><rect class="cls-9" x="196.08" y="225.49" width="9.8" height="9.8"/><rect class="cls-9" x="196.08" y="215.68" width="9.8" height="9.81"/><rect class="cls-9" x="196.08" y="205.88" width="9.8" height="9.8"/><rect class="cls-9" x="196.08" y="196.07" width="9.8" height="9.81"/><rect class="cls-9" x="196.08" y="186.27" width="9.8" height="9.8"/><rect class="cls-9" x="196.08" y="176.47" width="9.8" height="9.8"/><rect class="cls-9" x="196.08" y="166.66" width="9.8" height="9.81"/><rect class="cls-9" x="196.08" y="156.86" width="9.8" height="9.8"/><rect class="cls-9" x="196.08" y="147.05" width="9.8" height="9.81"/><rect class="cls-9" x="196.08" y="137.25" width="9.8" height="9.8"/><rect class="cls-9" x="196.08" y="127.45" width="9.8" height="9.8"/><rect class="cls-9" x="196.08" y="117.64" width="9.8" height="9.81"/><rect class="cls-9" x="196.08" y="107.84" width="9.8" height="9.8"/><rect class="cls-9" x="196.08" y="98.03" width="9.8" height="9.81"/><rect class="cls-9" x="196.08" y="88.23" width="9.8" height="9.8"/><rect class="cls-6" x="196.08" y="78.43" width="9.8" height="9.8"/><rect class="cls-6" x="196.08" y="68.62" width="9.8" height="9.81"/><rect class="cls-6" x="196.08" y="58.82" width="9.8" height="9.8"/><rect class="cls-2" x="186.27" y="264.7" width="9.81" height="9.81"/><rect class="cls-2" x="186.27" y="254.9" width="9.81" height="9.8"/><rect class="cls-2" x="186.27" y="245.09" width="9.81" height="9.81"/><rect class="cls-2" x="186.27" y="235.29" width="9.81" height="9.8"/><rect class="cls-9" x="186.27" y="225.49" width="9.81" height="9.8"/><rect class="cls-9" x="186.27" y="215.68" width="9.81" height="9.81"/><rect class="cls-9" x="186.27" y="205.88" width="9.81" height="9.8"/><rect class="cls-9" x="186.27" y="196.07" width="9.81" height="9.81"/><rect class="cls-9" x="186.27" y="186.27" width="9.81" height="9.8"/><rect class="cls-9" x="186.27" y="176.47" width="9.81" height="9.8"/><rect class="cls-9" x="186.27" y="166.66" width="9.81" height="9.81"/><rect class="cls-9" x="186.27" y="156.86" width="9.81" height="9.8"/><rect class="cls-9" x="186.27" y="147.05" width="9.81" height="9.81"/><rect class="cls-9" x="186.27" y="137.25" width="9.81" height="9.8"/><rect class="cls-9" x="186.27" y="127.45" width="9.81" height="9.8"/><rect class="cls-9" x="186.27" y="117.64" width="9.81" height="9.81"/><rect class="cls-9" x="186.27" y="107.84" width="9.81" height="9.8"/><rect class="cls-9" x="186.27" y="98.03" width="9.81" height="9.81"/><rect class="cls-9" x="186.27" y="88.23" width="9.81" height="9.8"/><rect class="cls-6" x="186.27" y="78.43" width="9.81" height="9.8"/><rect class="cls-6" x="186.27" y="68.62" width="9.81" height="9.81"/><rect class="cls-6" x="186.27" y="58.82" width="9.81" height="9.8"/><rect class="cls-9" x="176.47" y="186.27" width="9.8" height="9.8"/><rect class="cls-9" x="176.47" y="176.47" width="9.8" height="9.8"/><rect class="cls-9" x="176.47" y="166.66" width="9.8" height="9.81"/><rect class="cls-9" x="176.47" y="156.86" width="9.8" height="9.8"/><rect class="cls-9" x="176.47" y="147.05" width="9.8" height="9.81"/><rect class="cls-9" x="176.47" y="137.25" width="9.8" height="9.8"/><rect class="cls-6" x="176.47" y="127.45" width="9.8" height="9.8"/><rect class="cls-9" x="176.47" y="117.64" width="9.8" height="9.81"/><rect class="cls-9" x="176.47" y="107.84" width="9.8" height="9.8"/><rect class="cls-9" x="176.47" y="98.03" width="9.8" height="9.81"/><rect class="cls-9" x="176.47" y="88.23" width="9.8" height="9.8"/><rect class="cls-6" x="176.47" y="78.43" width="9.8" height="9.8"/><rect class="cls-6" x="176.47" y="68.62" width="9.8" height="9.81"/><rect class="cls-6" x="176.47" y="58.82" width="9.8" height="9.8"/><rect class="cls-6" x="166.67" y="205.88" width="9.8" height="9.8"/><rect class="cls-6" x="166.67" y="196.07" width="9.8" height="9.81"/><rect class="cls-6" x="166.67" y="186.27" width="9.8" height="9.8"/><rect class="cls-6" x="166.67" y="176.47" width="9.8" height="9.8"/><rect class="cls-6" x="166.67" y="166.66" width="9.8" height="9.81"/><rect class="cls-9" x="166.67" y="156.86" width="9.8" height="9.8"/><rect class="cls-9" x="166.67" y="147.05" width="9.8" height="9.81"/><rect class="cls-9" x="166.67" y="137.25" width="9.8" height="9.8"/><rect class="cls-9" x="166.67" y="127.45" width="9.8" height="9.8"/><rect class="cls-9" x="166.67" y="117.64" width="9.8" height="9.81"/><rect class="cls-9" x="166.67" y="107.84" width="9.8" height="9.8"/><rect class="cls-9" x="166.67" y="98.03" width="9.8" height="9.81"/><rect class="cls-1" x="166.67" y="88.23" width="9.8" height="9.8"/><rect class="cls-6" x="166.67" y="78.43" width="9.8" height="9.8"/><rect class="cls-6" x="166.67" y="68.62" width="9.8" height="9.81"/><rect class="cls-6" x="166.67" y="58.82" width="9.8" height="9.8"/><rect class="cls-6" x="156.86" y="264.7" width="9.81" height="9.81"/><rect class="cls-6" x="156.86" y="254.9" width="9.81" height="9.8"/><rect class="cls-6" x="156.86" y="245.09" width="9.81" height="9.81"/><rect class="cls-6" x="156.86" y="235.29" width="9.81" height="9.8"/><rect class="cls-6" x="156.86" y="225.49" width="9.81" height="9.8"/><rect class="cls-6" x="156.86" y="215.68" width="9.81" height="9.81"/><rect class="cls-6" x="156.86" y="205.88" width="9.81" height="9.8"/><rect class="cls-6" x="156.86" y="196.07" width="9.81" height="9.81"/><rect class="cls-6" x="156.86" y="176.47" width="9.81" height="9.8"/><rect class="cls-6" x="156.86" y="166.66" width="9.81" height="9.81"/><rect class="cls-6" x="156.86" y="156.86" width="9.81" height="9.8"/><rect class="cls-9" x="156.86" y="147.05" width="9.81" height="9.81"/><rect class="cls-9" x="156.86" y="137.25" width="9.81" height="9.8"/><rect class="cls-9" x="156.86" y="127.45" width="9.81" height="9.8"/><rect class="cls-9" x="156.86" y="117.64" width="9.81" height="9.81"/><rect class="cls-9" x="156.86" y="107.84" width="9.81" height="9.8"/><rect class="cls-1" x="156.86" y="98.03" width="9.81" height="9.81"/><rect class="cls-1" x="156.86" y="88.23" width="9.81" height="9.8"/><rect class="cls-6" x="156.86" y="78.43" width="9.81" height="9.8"/><rect class="cls-6" x="156.86" y="68.62" width="9.81" height="9.81"/><rect class="cls-6" x="156.86" y="58.82" width="9.81" height="9.8"/><rect class="cls-6" x="147.06" y="294.11" width="9.8" height="9.81"/><rect class="cls-6" x="147.06" y="284.31" width="9.8" height="9.8"/><rect class="cls-6" x="147.06" y="274.51" width="9.8" height="9.8"/><rect class="cls-6" x="147.06" y="264.7" width="9.8" height="9.81"/><rect class="cls-6" x="147.06" y="254.9" width="9.8" height="9.8"/><rect class="cls-6" x="147.06" y="245.09" width="9.8" height="9.81"/><rect class="cls-6" x="147.06" y="166.66" width="9.8" height="9.81"/><rect class="cls-6" x="147.06" y="156.86" width="9.8" height="9.8"/><rect class="cls-6" x="147.06" y="147.05" width="9.8" height="9.81"/><rect class="cls-9" x="147.06" y="137.25" width="9.8" height="9.8"/><rect class="cls-9" x="147.06" y="127.45" width="9.8" height="9.8"/><rect class="cls-9" x="147.06" y="117.64" width="9.8" height="9.81"/><rect class="cls-6" x="147.06" y="107.84" width="9.8" height="9.8"/><rect class="cls-6" x="147.06" y="98.03" width="9.8" height="9.81"/><rect class="cls-6" x="147.06" y="88.23" width="9.8" height="9.8"/><rect class="cls-6" x="147.06" y="78.43" width="9.8" height="9.8"/><rect class="cls-6" x="147.06" y="68.62" width="9.8" height="9.81"/><rect class="cls-6" x="147.06" y="58.82" width="9.8" height="9.8"/><rect class="cls-6" x="147.06" y="49.01" width="9.8" height="9.81"/><rect class="cls-6" x="137.25" y="156.86" width="9.81" height="9.8"/><rect class="cls-6" x="137.25" y="147.05" width="9.81" height="9.81"/><rect class="cls-6" x="137.25" y="137.25" width="9.81" height="9.8"/><rect class="cls-9" x="137.25" y="127.45" width="9.81" height="9.8"/><rect class="cls-9" x="137.25" y="117.64" width="9.81" height="9.81"/><rect class="cls-6" x="137.25" y="107.84" width="9.81" height="9.8"/><rect class="cls-6" x="137.25" y="98.03" width="9.81" height="9.81"/><rect class="cls-10" x="137.25" y="88.23" width="9.81" height="9.8"/><rect class="cls-6" x="137.25" y="78.43" width="9.81" height="9.8"/><rect class="cls-6" x="137.25" y="68.62" width="9.81" height="9.81"/><rect class="cls-6" x="137.25" y="49.01" width="9.81" height="9.81"/><rect class="cls-6" x="137.25" y="39.21" width="9.81" height="9.8"/><rect class="cls-6" x="127.45" y="147.05" width="9.8" height="9.81"/><rect class="cls-10" x="127.45" y="137.25" width="9.8" height="9.8"/><rect class="cls-8" x="127.45" y="127.45" width="9.8" height="9.8"/><rect class="cls-6" x="127.45" y="117.64" width="9.8" height="9.81"/><rect class="cls-6" x="127.45" y="107.84" width="9.8" height="9.8"/><rect class="cls-10" x="127.45" y="98.03" width="9.8" height="9.81"/><rect class="cls-6" x="127.45" y="88.23" width="9.8" height="9.8"/><rect class="cls-6" x="127.45" y="78.43" width="9.8" height="9.8"/><rect class="cls-6" x="127.45" y="39.21" width="9.8" height="9.8"/><rect class="cls-6" x="127.45" y="29.41" width="9.8" height="9.8"/><rect class="cls-6" x="127.45" y="19.6" width="9.8" height="9.81"/><rect class="cls-6" x="117.65" y="137.25" width="9.8" height="9.8"/><rect class="cls-6" x="117.65" y="127.45" width="9.8" height="9.8"/><rect class="cls-10" x="117.65" y="117.64" width="9.8" height="9.81"/><rect class="cls-10" x="117.65" y="107.84" width="9.8" height="9.8"/><rect class="cls-6" x="117.65" y="98.03" width="9.8" height="9.81"/><rect class="cls-6" x="117.65" y="88.23" width="9.8" height="9.8"/><rect class="cls-6" x="117.65" y="78.43" width="9.8" height="9.8"/><rect class="cls-6" x="117.65" y="19.6" width="9.8" height="9.81"/><rect class="cls-6" x="117.65" y="9.8" width="9.8" height="9.8"/><rect class="cls-6" x="107.84" y="127.45" width="9.81" height="9.8"/><rect class="cls-6" x="107.84" y="117.64" width="9.81" height="9.81"/><rect class="cls-6" x="107.84" y="107.84" width="9.81" height="9.8"/><rect class="cls-6" x="107.84" y="98.03" width="9.81" height="9.81"/><rect class="cls-6" x="107.84" y="88.23" width="9.81" height="9.8"/><rect class="cls-6" x="107.84" y="78.43" width="9.81" height="9.8"/><rect class="cls-6" x="107.84" y="9.8" width="9.81" height="9.8"/><rect class="cls-6" x="107.84" width="9.81" height="9.8"/><rect class="cls-6" x="98.04" y="127.45" width="9.8" height="9.8"/><rect class="cls-3" x="98.04" y="117.64" width="9.8" height="9.81"/><rect class="cls-6" x="98.04" y="107.84" width="9.8" height="9.8"/><rect class="cls-6" x="98.04" y="98.03" width="9.8" height="9.81"/><rect class="cls-3" x="98.04" y="88.23" width="9.8" height="9.8"/><rect class="cls-6" x="98.04" y="78.43" width="9.8" height="9.8"/><rect class="cls-6" x="98.04" width="9.8" height="9.8"/><rect class="cls-6" x="88.24" y="127.45" width="9.8" height="9.8"/><rect class="cls-5" x="88.24" y="117.64" width="9.8" height="9.81"/><rect class="cls-3" x="88.24" y="107.84" width="9.8" height="9.8"/><rect class="cls-3" x="88.24" y="98.03" width="9.8" height="9.81"/><rect class="cls-5" x="88.24" y="88.23" width="9.8" height="9.8"/><rect class="cls-6" x="88.24" y="78.43" width="9.8" height="9.8"/><rect class="cls-6" x="88.24" width="9.8" height="9.8"/><rect class="cls-5" x="78.43" y="127.45" width="9.81" height="9.8"/><rect class="cls-5" x="78.43" y="117.64" width="9.81" height="9.81"/><rect class="cls-3" x="78.43" y="107.84" width="9.81" height="9.8"/><rect class="cls-3" x="78.43" y="98.03" width="9.81" height="9.81"/><rect class="cls-5" x="78.43" y="88.23" width="9.81" height="9.8"/><rect class="cls-5" x="78.43" y="78.43" width="9.81" height="9.8"/><rect class="cls-6" x="78.43" width="9.81" height="9.8"/><rect class="cls-5" x="68.63" y="127.45" width="9.8" height="9.8"/><rect class="cls-5" x="68.63" y="117.64" width="9.8" height="9.81"/><rect class="cls-6" x="68.63" y="107.84" width="9.8" height="9.8"/><rect class="cls-6" x="68.63" y="98.03" width="9.8" height="9.81"/><rect class="cls-5" x="68.63" y="88.23" width="9.8" height="9.8"/><rect class="cls-5" x="68.63" y="78.43" width="9.8" height="9.8"/><rect class="cls-6" x="68.63" y="9.8" width="9.8" height="9.8"/><rect class="cls-6" x="68.63" width="9.8" height="9.8"/><rect class="cls-5" x="58.82" y="127.45" width="9.81" height="9.8"/><rect class="cls-5" x="58.82" y="117.64" width="9.81" height="9.81"/><rect class="cls-6" x="58.82" y="107.84" width="9.81" height="9.8"/><rect class="cls-6" x="58.82" y="98.03" width="9.81" height="9.81"/><rect class="cls-5" x="58.82" y="88.23" width="9.81" height="9.8"/><rect class="cls-5" x="58.82" y="78.43" width="9.81" height="9.8"/><rect class="cls-6" x="58.82" y="39.21" width="9.81" height="9.8"/><rect class="cls-6" x="58.82" y="29.41" width="9.81" height="9.8"/><rect class="cls-6" x="58.82" y="19.6" width="9.81" height="9.81"/><rect class="cls-6" x="58.82" y="9.8" width="9.81" height="9.8"/><rect class="cls-5" x="49.02" y="127.45" width="9.8" height="9.8"/><rect class="cls-3" x="49.02" y="117.64" width="9.8" height="9.81"/><rect class="cls-3" x="49.02" y="107.84" width="9.8" height="9.8"/><rect class="cls-3" x="49.02" y="98.03" width="9.8" height="9.81"/><rect class="cls-3" x="49.02" y="88.23" width="9.8" height="9.8"/><rect class="cls-5" x="49.02" y="78.43" width="9.8" height="9.8"/><rect class="cls-5" x="39.22" y="137.25" width="9.8" height="9.8"/><rect class="cls-5" x="39.22" y="127.45" width="9.8" height="9.8"/><rect class="cls-5" x="39.22" y="78.43" width="9.8" height="9.8"/><rect class="cls-5" x="39.22" y="68.62" width="9.8" height="9.81"/><rect class="cls-5" x="29.41" y="137.25" width="9.81" height="9.8"/><rect class="cls-4" x="29.41" y="127.45" width="9.81" height="9.8"/><rect class="cls-4" x="29.41" y="78.43" width="9.81" height="9.8"/><rect class="cls-5" x="29.41" y="68.62" width="9.81" height="9.81"/><rect class="cls-5" x="19.61" y="137.25" width="9.8" height="9.8"/><rect class="cls-4" x="19.61" y="127.45" width="9.8" height="9.8"/><rect class="cls-4" x="19.61" y="78.43" width="9.8" height="9.8"/><rect class="cls-5" x="19.61" y="68.62" width="9.8" height="9.81"/><rect class="cls-3" x="9.8" y="127.45" width="9.81" height="9.8"/><rect class="cls-4" x="9.8" y="117.64" width="9.81" height="9.81"/><rect class="cls-4" x="9.8" y="107.84" width="9.81" height="9.8"/><rect class="cls-4" x="9.8" y="98.03" width="9.81" height="9.81"/><rect class="cls-4" x="9.8" y="88.23" width="9.81" height="9.8"/><rect class="cls-3" x="9.8" y="78.43" width="9.81" height="9.8"/><rect class="cls-3" y="117.64" width="9.8" height="9.81"/><rect class="cls-3" y="107.84" width="9.8" height="9.8"/><rect class="cls-3" y="98.03" width="9.8" height="9.81"/><rect class="cls-3" y="88.23" width="9.8" height="9.8"/></g></g></svg>