<svg xmlns="http://www.w3.org/2000/svg" xmlns:xlink="http://www.w3.org/1999/xlink" width="440" height="140" viewBox="0 0 440 140">
  <defs>
    <filter id="capman-logo1-a" width="103.9%" height="129.2%" x="-2%" y="-10.4%" filterUnits="objectBoundingBox">
      <feOffset dy="2" in="SourceAlpha" result="shadowOffsetOuter1"/>
      <feGaussianBlur in="shadowOffsetOuter1" result="shadowBlurOuter1" stdDeviation="2"/>
      <feColorMatrix in="shadowBlurOuter1" result="shadowMatrixOuter1" values="0 0 0 0 0   0 0 0 0 0   0 0 0 0 0  0 0 0 0.5 0"/>
      <feMerge>
        <feMergeNode in="shadowMatrixOuter1"/>
        <feMergeNode in="SourceGraphic"/>
      </feMerge>
    </filter>
    <path id="capman-logo1-b" d="M26,48 C19.203091,48 13.3086187,45.7148666 8.31640625,41.1445312 C3.11325523,36.4335702 0.51171875,30.7148774 0.51171875,23.9882812 C0.51171875,17.3085604 3.11325523,11.5898675 8.31640625,6.83203125 C13.3554939,2.28513352 19.2499662,0.01171875 26,0.01171875 L45.5117188,0.01171875 L45.5117188,14.9882812 L26,14.9882812 C23.5156126,14.9882812 21.3476655,15.8788973 19.4960938,17.6601562 C17.6210844,19.4648528 16.6835938,21.5742067 16.6835938,23.9882812 C16.6835938,26.4257934 17.6093657,28.5351473 19.4609375,30.3164062 C21.3125093,32.0976652 23.492175,32.9882812 26,32.9882812 L51.4882812,32.9882812 L51.4882812,48 L26,48 Z M81.5,16.0078125 L77.84375,30 L85.15625,30 L81.5,16.0078125 Z M89.9023438,48 L88.3203125,41.9882812 L74.6445312,41.9882812 L73.0976562,48 L54.5,48 L63.1132812,14.9882812 L48.5585938,14.9882812 L48.5585938,0.01171875 L95.8789062,0.01171875 L108.5,48 L89.9023438,48 Z M168.464844,16.8164062 C168.464844,21.1992407 166.765642,25.0898268 163.367188,28.4882812 C159.968733,31.8867357 156.066428,33.5859375 151.660156,33.5859375 L135.488281,33.5859375 L135.488281,48 L117.488281,48 L117.488281,22.1953125 L146.878906,22.1953125 C147.839849,22.1953125 148.671871,21.8437535 149.375,21.140625 C150.101566,20.4140589 150.464844,19.5703173 150.464844,18.609375 C150.464844,17.6484327 150.101566,16.8046911 149.375,16.078125 C148.671871,15.3515589 147.839849,14.9882812 146.878906,14.9882812 L111.546875,14.9882812 L111.546875,0.01171875 L151.660156,0.01171875 C156.066428,0.01171875 159.968733,1.71092051 163.367188,5.109375 C166.765642,8.50782949 168.464844,12.4101342 168.464844,16.8164062 Z M216.476562,48 L216.476562,32.9882812 L205.964844,48 L195.488281,32.9882812 L195.488281,48 L177.488281,48 L177.488281,14.9882812 L171.546875,14.9882812 L171.546875,0.01171875 L195.488281,0.01171875 L205.964844,14.9882812 L216.476562,0.01171875 L234.476562,0.01171875 L234.476562,48 L216.476562,48 Z M270.5,16.0078125 L266.84375,30 L274.15625,30 L270.5,16.0078125 Z M278.902344,48 L277.320312,41.9882812 L263.644531,41.9882812 L262.097656,48 L243.5,48 L252.113281,14.9882812 L237.558594,14.9882812 L237.558594,0.01171875 L284.878906,0.01171875 L297.5,48 L278.902344,48 Z M339.464844,48 L324.488281,28.8046875 L324.488281,48 L306.488281,48 L306.488281,14.9882812 L300.546875,14.9882812 L300.546875,0.01171875 L324.488281,0.01171875 L339.464844,19.2070312 L339.464844,0.01171875 L357.464844,0.01171875 L357.464844,48 L339.464844,48 Z"/>
  </defs>
  <g fill="none" fill-rule="evenodd">
    <text fill="#FFF" font-family="Lobster" font-size="32" letter-spacing="2">
      <tspan x="85" y="131">Galaxy Conquest</tspan>
    </text>
    <rect width="398" height="1" x="16" y="89" fill="#FFF" transform="matrix(1 0 0 -1 0 179)"/>
    <path fill="#FFF" stroke="#049597" stroke-width="9" d="M62,67 C55.203091,67 49.3086187,64.7148666 44.3164062,60.1445312 C39.1132552,55.4335702 36.5117188,49.7148774 36.5117188,42.9882812 C36.5117188,36.3085604 39.1132552,30.5898675 44.3164062,25.8320312 C49.3554939,21.2851335 55.2499662,19.0117187 62,19.0117187 L81.5117188,19.0117187 L81.5117188,33.9882812 L62,33.9882812 C59.5156126,33.9882812 57.3476655,34.8788973 55.4960938,36.6601562 C53.6210844,38.4648528 52.6835938,40.5742067 52.6835938,42.9882812 C52.6835938,45.4257934 53.6093657,47.5351473 55.4609375,49.3164062 C57.3125093,51.0976652 59.492175,51.9882812 62,51.9882812 L87.4882812,51.9882812 L87.4882812,67 L62,67 Z M117.5,35.0078125 L113.84375,49 L121.15625,49 L117.5,35.0078125 Z M125.902344,67 L124.320312,60.9882812 L110.644531,60.9882812 L109.097656,67 L90.5,67 L99.1132812,33.9882812 L84.5585938,33.9882812 L84.5585938,19.0117187 L131.878906,19.0117187 L144.5,67 L125.902344,67 Z M204.464844,35.8164062 C204.464844,40.1992407 202.765642,44.0898268 199.367188,47.4882812 C195.968733,50.8867357 192.066428,52.5859375 187.660156,52.5859375 L171.488281,52.5859375 L171.488281,67 L153.488281,67 L153.488281,41.1953125 L182.878906,41.1953125 C183.839849,41.1953125 184.671871,40.8437535 185.375,40.140625 C186.101566,39.4140589 186.464844,38.5703173 186.464844,37.609375 C186.464844,36.6484327 186.101566,35.8046911 185.375,35.078125 C184.671871,34.3515589 183.839849,33.9882812 182.878906,33.9882812 L147.546875,33.9882812 L147.546875,19.0117187 L187.660156,19.0117187 C192.066428,19.0117187 195.968733,20.7109205 199.367188,24.109375 C202.765642,27.5078295 204.464844,31.4101342 204.464844,35.8164062 Z M252.476562,67 L252.476562,51.9882812 L241.964844,67 L231.488281,51.9882812 L231.488281,67 L213.488281,67 L213.488281,33.9882812 L207.546875,33.9882812 L207.546875,19.0117187 L231.488281,19.0117187 L241.964844,33.9882812 L252.476562,19.0117187 L270.476562,19.0117187 L270.476562,67 L252.476562,67 Z M306.5,35.0078125 L302.84375,49 L310.15625,49 L306.5,35.0078125 Z M314.902344,67 L313.320312,60.9882812 L299.644531,60.9882812 L298.097656,67 L279.5,67 L288.113281,33.9882812 L273.558594,33.9882812 L273.558594,19.0117187 L320.878906,19.0117187 L333.5,67 L314.902344,67 Z M377.359653,67 L375.464844,67 L360.488281,47.8046875 L360.488281,67 L342.488281,67 L342.488281,33.9882812 L336.546875,33.9882812 L336.546875,19.0117187 L360.488281,19.0117187 L375.464844,38.2070312 L375.464844,19.0117187 L383.51581,19.0117187 L384.149097,18.2452541 L383.972145,19.0117187 L393.464844,19.0117187 L393.464844,67 L381.88241,67 L384.668544,71.2197903 L377.359653,67 Z M57.5117188,63.0117187 L67.5117188,63.0117187 L67.5117188,68.0117187 L57.5117188,63.0117187 Z M104.511719,45.0117187 L114.511719,45.0117187 L114.511719,50.0117187 L104.511719,45.0117187 Z M56.5117188,19.0117187 L66.5117188,19.0117187 L66.5117188,24.0117187 L56.5117188,19.0117187 Z M151.347358,19 L160.176834,23.6947156 L157.829476,28.1094536 L151.347358,19 Z M266.149097,21.2452541 L263.899587,30.9889548 L259.027736,29.8641995 L266.149097,21.2452541 Z M257.149097,26.2452541 L254.899587,35.9889548 L250.027736,34.8641995 L257.149097,26.2452541 Z M275.97782,67.7158013 L280.825916,58.9696042 L285.199014,61.3936523 L275.97782,67.7158013 Z M163.808612,56.8539999 L162.416881,46.9513192 L167.368222,46.2554537 L163.808612,56.8539999 Z M219.808612,56.8539999 L218.416881,46.9513192 L223.368222,46.2554537 L219.808612,56.8539999 Z M128.808612,61.8539999 L127.416881,51.9513192 L132.368222,51.2554537 L128.808612,61.8539999 Z M61.7558606,61.0825519 L59.4328216,53.932973 L63.007611,52.7714535 L61.7558606,61.0825519 Z"/>
    <g filter="url(#capman-logo1-a)" transform="translate(36 19)">
      <mask id="capman-logo1-c" fill="#fff">
        <use xlink:href="#capman-logo1-b"/>
      </mask>
      <use fill="#FFF" xlink:href="#capman-logo1-b"/>
      <rect width="387" height="33" x="-9" y="24" fill="#00D1D0" mask="url(#capman-logo1-c)" opacity=".851"/>
      <rect width="386" height="3" x="-8" y="24" fill="#FFF" mask="url(#capman-logo1-c)" opacity=".499"/>
    </g>
  </g>
</svg>
