<svg xmlns="http://www.w3.org/2000/svg" viewBox="0 0 460.78 156.86"><defs><style>.cls-1{fill:#00c37b;}.cls-2{fill:#80b8d6;}.cls-3{fill:#0f999c;}.cls-4{fill:#88d5ed;}.cls-5{fill:#01d1d0;}.cls-6{fill:#c8ff16;}.cls-7{fill:#15636b;}.cls-8{fill:#ff6327;}</style></defs><title>Jet-front</title><g id="Layer_2" data-name="Layer 2"><g id="Layer_1-2" data-name="Layer 1"><rect class="cls-1" x="450.98" y="117.65" width="9.8" height="9.8"/><rect class="cls-2" x="450.98" y="107.84" width="9.8" height="9.81"/><rect class="cls-2" x="441.17" y="117.65" width="9.81" height="9.8"/><rect class="cls-1" x="441.17" y="107.84" width="9.81" height="9.81"/><rect class="cls-2" x="441.17" y="98.04" width="9.81" height="9.8"/><rect class="cls-2" x="431.37" y="127.45" width="9.8" height="9.8"/><rect class="cls-3" x="431.37" y="117.65" width="9.8" height="9.8"/><rect class="cls-1" x="431.37" y="107.84" width="9.8" height="9.81"/><rect class="cls-1" x="431.37" y="98.04" width="9.8" height="9.8"/><rect class="cls-2" x="431.37" y="88.23" width="9.8" height="9.81"/><rect class="cls-2" x="421.57" y="127.45" width="9.8" height="9.8"/><rect class="cls-3" x="421.57" y="117.65" width="9.8" height="9.8"/><rect class="cls-1" x="421.57" y="107.84" width="9.8" height="9.81"/><rect class="cls-1" x="421.57" y="98.04" width="9.8" height="9.8"/><rect class="cls-2" x="421.57" y="88.23" width="9.8" height="9.81"/><rect class="cls-2" x="411.76" y="127.45" width="9.81" height="9.8"/><rect class="cls-3" x="411.76" y="117.65" width="9.81" height="9.8"/><rect class="cls-1" x="411.76" y="107.84" width="9.81" height="9.81"/><rect class="cls-1" x="411.76" y="98.04" width="9.81" height="9.8"/><rect class="cls-2" x="411.76" y="88.23" width="9.81" height="9.81"/><rect class="cls-2" x="401.96" y="127.45" width="9.8" height="9.8"/><rect class="cls-3" x="401.96" y="117.65" width="9.8" height="9.8"/><rect class="cls-1" x="401.96" y="107.84" width="9.8" height="9.81"/><rect class="cls-1" x="401.96" y="98.04" width="9.8" height="9.8"/><rect class="cls-1" x="401.96" y="88.23" width="9.8" height="9.81"/><rect class="cls-4" x="401.96" y="78.43" width="9.8" height="9.8"/><rect class="cls-2" x="392.15" y="127.45" width="9.81" height="9.8"/><rect class="cls-3" x="392.15" y="117.65" width="9.81" height="9.8"/><rect class="cls-1" x="392.15" y="107.84" width="9.81" height="9.81"/><rect class="cls-1" x="392.15" y="98.04" width="9.81" height="9.8"/><rect class="cls-1" x="392.15" y="88.23" width="9.81" height="9.81"/><rect class="cls-2" x="392.15" y="78.43" width="9.81" height="9.8"/><rect class="cls-4" x="382.35" y="127.45" width="9.8" height="9.8"/><rect class="cls-3" x="382.35" y="117.65" width="9.8" height="9.8"/><rect class="cls-1" x="382.35" y="107.84" width="9.8" height="9.81"/><rect class="cls-1" x="382.35" y="98.04" width="9.8" height="9.8"/><rect class="cls-1" x="382.35" y="88.23" width="9.8" height="9.81"/><rect class="cls-2" x="382.35" y="78.43" width="9.8" height="9.8"/><rect class="cls-2" x="372.55" y="117.65" width="9.8" height="9.8"/><rect class="cls-4" x="372.55" y="107.84" width="9.8" height="9.81"/><rect class="cls-1" x="372.55" y="98.04" width="9.8" height="9.8"/><rect class="cls-1" x="372.55" y="88.23" width="9.8" height="9.81"/><rect class="cls-2" x="372.55" y="78.43" width="9.8" height="9.8"/><rect class="cls-2" x="362.74" y="117.65" width="9.81" height="9.8"/><rect class="cls-4" x="362.74" y="107.84" width="9.81" height="9.81"/><rect class="cls-1" x="362.74" y="98.04" width="9.81" height="9.8"/><rect class="cls-1" x="362.74" y="88.23" width="9.81" height="9.81"/><rect class="cls-2" x="362.74" y="78.43" width="9.81" height="9.8"/><rect class="cls-2" x="352.94" y="117.65" width="9.8" height="9.8"/><rect class="cls-4" x="352.94" y="107.84" width="9.8" height="9.81"/><rect class="cls-1" x="352.94" y="98.04" width="9.8" height="9.8"/><rect class="cls-1" x="352.94" y="88.23" width="9.8" height="9.81"/><rect class="cls-5" x="352.94" y="78.43" width="9.8" height="9.8"/><rect class="cls-4" x="352.94" y="68.63" width="9.8" height="9.8"/><rect class="cls-2" x="343.14" y="117.65" width="9.8" height="9.8"/><rect class="cls-2" x="343.14" y="107.84" width="9.8" height="9.81"/><rect class="cls-1" x="343.14" y="98.04" width="9.8" height="9.8"/><rect class="cls-1" x="343.14" y="88.23" width="9.8" height="9.81"/><rect class="cls-1" x="343.14" y="78.43" width="9.8" height="9.8"/><rect class="cls-2" x="343.14" y="68.63" width="9.8" height="9.8"/><rect class="cls-2" x="333.33" y="117.65" width="9.81" height="9.8"/><rect class="cls-2" x="333.33" y="107.84" width="9.81" height="9.81"/><rect class="cls-2" x="333.33" y="98.04" width="9.81" height="9.8"/><rect class="cls-2" x="333.33" y="88.23" width="9.81" height="9.81"/><rect class="cls-1" x="333.33" y="78.43" width="9.81" height="9.8"/><rect class="cls-2" x="333.33" y="68.63" width="9.81" height="9.8"/><rect class="cls-2" x="323.53" y="127.45" width="9.8" height="9.8"/><rect class="cls-2" x="323.53" y="117.65" width="9.8" height="9.8"/><rect class="cls-2" x="323.53" y="107.84" width="9.8" height="9.81"/><rect class="cls-6" x="323.53" y="98.04" width="9.8" height="9.8"/><rect class="cls-6" x="323.53" y="88.23" width="9.8" height="9.81"/><rect class="cls-2" x="323.53" y="78.43" width="9.8" height="9.8"/><rect class="cls-2" x="323.53" y="68.63" width="9.8" height="9.8"/><rect class="cls-2" x="313.72" y="127.45" width="9.81" height="9.8"/><rect class="cls-2" x="313.72" y="117.65" width="9.81" height="9.8"/><rect class="cls-2" x="313.72" y="107.84" width="9.81" height="9.81"/><rect class="cls-4" x="313.72" y="98.04" width="9.81" height="9.8"/><rect class="cls-6" x="313.72" y="88.23" width="9.81" height="9.81"/><rect class="cls-2" x="313.72" y="78.43" width="9.81" height="9.8"/><rect class="cls-1" x="313.72" y="68.63" width="9.81" height="9.8"/><rect class="cls-2" x="313.72" y="58.82" width="9.81" height="9.81"/><rect class="cls-2" x="303.92" y="127.45" width="9.8" height="9.8"/><rect class="cls-2" x="303.92" y="117.65" width="9.8" height="9.8"/><rect class="cls-1" x="303.92" y="107.84" width="9.8" height="9.81"/><rect class="cls-2" x="303.92" y="98.04" width="9.8" height="9.8"/><rect class="cls-2" x="303.92" y="88.23" width="9.8" height="9.81"/><rect class="cls-1" x="303.92" y="78.43" width="9.8" height="9.8"/><rect class="cls-1" x="303.92" y="68.63" width="9.8" height="9.8"/><rect class="cls-1" x="303.92" y="58.82" width="9.8" height="9.81"/><rect class="cls-5" x="303.92" y="49.02" width="9.8" height="9.8"/><rect class="cls-2" x="294.12" y="127.45" width="9.8" height="9.8"/><rect class="cls-2" x="294.12" y="117.65" width="9.8" height="9.8"/><rect class="cls-1" x="294.12" y="107.84" width="9.8" height="9.81"/><rect class="cls-1" x="294.12" y="98.04" width="9.8" height="9.8"/><rect class="cls-1" x="294.12" y="88.23" width="9.8" height="9.81"/><rect class="cls-1" x="294.12" y="78.43" width="9.8" height="9.8"/><rect class="cls-1" x="294.12" y="68.63" width="9.8" height="9.8"/><rect class="cls-1" x="294.12" y="58.82" width="9.8" height="9.81"/><rect class="cls-2" x="294.12" y="49.02" width="9.8" height="9.8"/><rect class="cls-4" x="284.31" y="127.45" width="9.81" height="9.8"/><rect class="cls-2" x="284.31" y="117.65" width="9.81" height="9.8"/><rect class="cls-4" x="284.31" y="107.84" width="9.81" height="9.81"/><rect class="cls-1" x="284.31" y="98.04" width="9.81" height="9.8"/><rect class="cls-1" x="284.31" y="88.23" width="9.81" height="9.81"/><rect class="cls-7" x="284.31" y="78.43" width="9.81" height="9.8"/><rect class="cls-1" x="284.31" y="68.63" width="9.81" height="9.8"/><rect class="cls-1" x="284.31" y="58.82" width="9.81" height="9.81"/><rect class="cls-2" x="284.31" y="49.02" width="9.81" height="9.8"/><rect class="cls-8" x="274.51" y="127.45" width="9.8" height="9.8"/><rect class="cls-2" x="274.51" y="117.65" width="9.8" height="9.8"/><rect class="cls-7" x="274.51" y="107.84" width="9.8" height="9.81"/><rect class="cls-1" x="274.51" y="98.04" width="9.8" height="9.8"/><rect class="cls-1" x="274.51" y="88.23" width="9.8" height="9.81"/><rect class="cls-1" x="274.51" y="78.43" width="9.8" height="9.8"/><rect class="cls-7" x="274.51" y="68.63" width="9.8" height="9.8"/><rect class="cls-1" x="274.51" y="58.82" width="9.8" height="9.81"/><rect class="cls-2" x="274.51" y="49.02" width="9.8" height="9.8"/><rect class="cls-2" x="274.51" y="39.21" width="9.8" height="9.81"/><rect class="cls-8" x="264.7" y="127.45" width="9.81" height="9.8"/><rect class="cls-4" x="264.7" y="117.65" width="9.81" height="9.8"/><rect class="cls-7" x="264.7" y="107.84" width="9.81" height="9.81"/><rect class="cls-1" x="264.7" y="98.04" width="9.81" height="9.8"/><rect class="cls-1" x="264.7" y="88.23" width="9.81" height="9.81"/><rect class="cls-1" x="264.7" y="78.43" width="9.81" height="9.8"/><rect class="cls-1" x="264.7" y="68.63" width="9.81" height="9.8"/><rect class="cls-7" x="264.7" y="58.82" width="9.81" height="9.81"/><rect class="cls-4" x="264.7" y="49.02" width="9.81" height="9.8"/><rect class="cls-4" x="264.7" y="39.21" width="9.81" height="9.81"/><rect class="cls-2" x="264.7" y="29.41" width="9.81" height="9.8"/><rect class="cls-8" x="254.9" y="127.45" width="9.8" height="9.8"/><rect class="cls-4" x="254.9" y="117.65" width="9.8" height="9.8"/><rect class="cls-3" x="254.9" y="107.84" width="9.8" height="9.81"/><rect class="cls-1" x="254.9" y="98.04" width="9.8" height="9.8"/><rect class="cls-1" x="254.9" y="88.23" width="9.8" height="9.81"/><rect class="cls-1" x="254.9" y="78.43" width="9.8" height="9.8"/><rect class="cls-1" x="254.9" y="68.63" width="9.8" height="9.8"/><rect class="cls-2" x="254.9" y="58.82" width="9.8" height="9.81"/><rect class="cls-4" x="254.9" y="49.02" width="9.8" height="9.8"/><rect class="cls-4" x="254.9" y="39.21" width="9.8" height="9.81"/><rect class="cls-4" x="254.9" y="29.41" width="9.8" height="9.8"/><rect class="cls-4" x="254.9" y="19.61" width="9.8" height="9.8"/><rect class="cls-4" x="245.1" y="127.45" width="9.8" height="9.8"/><rect class="cls-7" x="245.1" y="117.65" width="9.8" height="9.8"/><rect class="cls-1" x="245.1" y="107.84" width="9.8" height="9.81"/><rect class="cls-1" x="245.1" y="98.04" width="9.8" height="9.8"/><rect class="cls-1" x="245.1" y="88.23" width="9.8" height="9.81"/><rect class="cls-1" x="245.1" y="78.43" width="9.8" height="9.8"/><rect class="cls-2" x="245.1" y="68.63" width="9.8" height="9.8"/><rect class="cls-2" x="245.1" y="58.82" width="9.8" height="9.81"/><rect class="cls-4" x="245.1" y="49.02" width="9.8" height="9.8"/><rect class="cls-4" x="245.1" y="39.21" width="9.8" height="9.81"/><rect class="cls-4" x="245.1" y="29.41" width="9.8" height="9.8"/><rect class="cls-4" x="245.1" y="19.61" width="9.8" height="9.8"/><rect class="cls-4" x="245.1" y="9.8" width="9.8" height="9.81"/><rect class="cls-2" x="235.29" y="137.25" width="9.81" height="9.81"/><rect class="cls-1" x="235.29" y="127.45" width="9.81" height="9.8"/><rect class="cls-1" x="235.29" y="117.65" width="9.81" height="9.8"/><rect class="cls-1" x="235.29" y="107.84" width="9.81" height="9.81"/><rect class="cls-1" x="235.29" y="98.04" width="9.81" height="9.8"/><rect class="cls-1" x="235.29" y="88.23" width="9.81" height="9.81"/><rect class="cls-1" x="235.29" y="78.43" width="9.81" height="9.8"/><rect class="cls-2" x="235.29" y="68.63" width="9.81" height="9.8"/><rect class="cls-4" x="235.29" y="58.82" width="9.81" height="9.81"/><rect class="cls-4" x="235.29" y="49.02" width="9.81" height="9.8"/><rect class="cls-4" x="235.29" y="39.21" width="9.81" height="9.81"/><rect class="cls-4" x="235.29" y="29.41" width="9.81" height="9.8"/><rect class="cls-4" x="235.29" y="19.61" width="9.81" height="9.8"/><rect class="cls-4" x="235.29" y="9.8" width="9.81" height="9.81"/><rect class="cls-2" x="225.49" y="147.06" width="9.8" height="9.8"/><rect class="cls-7" x="225.49" y="137.25" width="9.8" height="9.81"/><rect class="cls-7" x="225.49" y="127.45" width="9.8" height="9.8"/><rect class="cls-1" x="225.49" y="117.65" width="9.8" height="9.8"/><rect class="cls-1" x="225.49" y="107.84" width="9.8" height="9.81"/><rect class="cls-1" x="225.49" y="98.04" width="9.8" height="9.8"/><rect class="cls-2" x="225.49" y="88.23" width="9.8" height="9.81"/><rect class="cls-1" x="225.49" y="78.43" width="9.8" height="9.8"/><rect class="cls-2" x="225.49" y="68.63" width="9.8" height="9.8"/><rect class="cls-4" x="225.49" y="58.82" width="9.8" height="9.81"/><rect class="cls-4" x="225.49" y="49.02" width="9.8" height="9.8"/><rect class="cls-4" x="225.49" y="39.21" width="9.8" height="9.81"/><rect class="cls-4" x="225.49" y="29.41" width="9.8" height="9.8"/><rect class="cls-4" x="225.49" y="19.61" width="9.8" height="9.8"/><rect class="cls-4" x="225.49" y="9.8" width="9.8" height="9.81"/><rect class="cls-4" x="225.49" width="9.8" height="9.8"/><rect class="cls-2" x="215.68" y="137.25" width="9.81" height="9.81"/><rect class="cls-1" x="215.68" y="127.45" width="9.81" height="9.8"/><rect class="cls-1" x="215.68" y="117.65" width="9.81" height="9.8"/><rect class="cls-1" x="215.68" y="107.84" width="9.81" height="9.81"/><rect class="cls-1" x="215.68" y="98.04" width="9.81" height="9.8"/><rect class="cls-1" x="215.68" y="88.23" width="9.81" height="9.81"/><rect class="cls-1" x="215.68" y="78.43" width="9.81" height="9.8"/><rect class="cls-2" x="215.68" y="68.63" width="9.81" height="9.8"/><rect class="cls-4" x="215.68" y="58.82" width="9.81" height="9.81"/><rect class="cls-4" x="215.68" y="49.02" width="9.81" height="9.8"/><rect class="cls-4" x="215.68" y="39.21" width="9.81" height="9.81"/><rect class="cls-4" x="215.68" y="29.41" width="9.81" height="9.8"/><rect class="cls-4" x="215.68" y="19.61" width="9.81" height="9.8"/><rect class="cls-4" x="215.68" y="9.8" width="9.81" height="9.81"/><rect class="cls-4" x="205.88" y="127.45" width="9.8" height="9.8"/><rect class="cls-7" x="205.88" y="117.65" width="9.8" height="9.8"/><rect class="cls-1" x="205.88" y="107.84" width="9.8" height="9.81"/><rect class="cls-1" x="205.88" y="98.04" width="9.8" height="9.8"/><rect class="cls-1" x="205.88" y="88.23" width="9.8" height="9.81"/><rect class="cls-1" x="205.88" y="78.43" width="9.8" height="9.8"/><rect class="cls-2" x="205.88" y="68.63" width="9.8" height="9.8"/><rect class="cls-2" x="205.88" y="58.82" width="9.8" height="9.81"/><rect class="cls-4" x="205.88" y="49.02" width="9.8" height="9.8"/><rect class="cls-4" x="205.88" y="39.21" width="9.8" height="9.81"/><rect class="cls-4" x="205.88" y="29.41" width="9.8" height="9.8"/><rect class="cls-4" x="205.88" y="19.61" width="9.8" height="9.8"/><rect class="cls-4" x="205.88" y="9.8" width="9.8" height="9.81"/><rect class="cls-8" x="196.08" y="127.45" width="9.8" height="9.8"/><rect class="cls-4" x="196.08" y="117.65" width="9.8" height="9.8"/><rect class="cls-3" x="196.08" y="107.84" width="9.8" height="9.81"/><rect class="cls-1" x="196.08" y="98.04" width="9.8" height="9.8"/><rect class="cls-1" x="196.08" y="88.23" width="9.8" height="9.81"/><rect class="cls-1" x="196.08" y="78.43" width="9.8" height="9.8"/><rect class="cls-1" x="196.08" y="68.63" width="9.8" height="9.8"/><rect class="cls-2" x="196.08" y="58.82" width="9.8" height="9.81"/><rect class="cls-4" x="196.08" y="49.02" width="9.8" height="9.8"/><rect class="cls-4" x="196.08" y="39.21" width="9.8" height="9.81"/><rect class="cls-4" x="196.08" y="29.41" width="9.8" height="9.8"/><rect class="cls-4" x="196.08" y="19.61" width="9.8" height="9.8"/><rect class="cls-8" x="186.27" y="127.45" width="9.81" height="9.8"/><rect class="cls-4" x="186.27" y="117.65" width="9.81" height="9.8"/><rect class="cls-7" x="186.27" y="107.84" width="9.81" height="9.81"/><rect class="cls-1" x="186.27" y="98.04" width="9.81" height="9.8"/><rect class="cls-1" x="186.27" y="88.23" width="9.81" height="9.81"/><rect class="cls-1" x="186.27" y="78.43" width="9.81" height="9.8"/><rect class="cls-1" x="186.27" y="68.63" width="9.81" height="9.8"/><rect class="cls-7" x="186.27" y="58.82" width="9.81" height="9.81"/><rect class="cls-4" x="186.27" y="49.02" width="9.81" height="9.8"/><rect class="cls-4" x="186.27" y="39.21" width="9.81" height="9.81"/><rect class="cls-2" x="186.27" y="29.41" width="9.81" height="9.8"/><rect class="cls-8" x="176.47" y="127.45" width="9.8" height="9.8"/><rect class="cls-2" x="176.47" y="117.65" width="9.8" height="9.8"/><rect class="cls-7" x="176.47" y="107.84" width="9.8" height="9.81"/><rect class="cls-1" x="176.47" y="98.04" width="9.8" height="9.8"/><rect class="cls-1" x="176.47" y="88.23" width="9.8" height="9.81"/><rect class="cls-1" x="176.47" y="78.43" width="9.8" height="9.8"/><rect class="cls-7" x="176.47" y="68.63" width="9.8" height="9.8"/><rect class="cls-1" x="176.47" y="58.82" width="9.8" height="9.81"/><rect class="cls-2" x="176.47" y="49.02" width="9.8" height="9.8"/><rect class="cls-2" x="176.47" y="39.21" width="9.8" height="9.81"/><rect class="cls-4" x="166.66" y="127.45" width="9.81" height="9.8"/><rect class="cls-2" x="166.66" y="117.65" width="9.81" height="9.8"/><rect class="cls-4" x="166.66" y="107.84" width="9.81" height="9.81"/><rect class="cls-1" x="166.66" y="98.04" width="9.81" height="9.8"/><rect class="cls-1" x="166.66" y="88.23" width="9.81" height="9.81"/><rect class="cls-7" x="166.66" y="78.43" width="9.81" height="9.8"/><rect class="cls-1" x="166.66" y="68.63" width="9.81" height="9.8"/><rect class="cls-1" x="166.66" y="58.82" width="9.81" height="9.81"/><rect class="cls-2" x="166.66" y="49.02" width="9.81" height="9.8"/><rect class="cls-2" x="156.86" y="127.45" width="9.8" height="9.8"/><rect class="cls-2" x="156.86" y="117.65" width="9.8" height="9.8"/><rect class="cls-1" x="156.86" y="107.84" width="9.8" height="9.81"/><rect class="cls-1" x="156.86" y="98.04" width="9.8" height="9.8"/><rect class="cls-1" x="156.86" y="88.23" width="9.8" height="9.81"/><rect class="cls-1" x="156.86" y="78.43" width="9.8" height="9.8"/><rect class="cls-1" x="156.86" y="68.63" width="9.8" height="9.8"/><rect class="cls-1" x="156.86" y="58.82" width="9.8" height="9.81"/><rect class="cls-2" x="156.86" y="49.02" width="9.8" height="9.8"/><rect class="cls-2" x="147.06" y="127.45" width="9.8" height="9.8"/><rect class="cls-2" x="147.06" y="117.65" width="9.8" height="9.8"/><rect class="cls-1" x="147.06" y="107.84" width="9.8" height="9.81"/><rect class="cls-2" x="147.06" y="98.04" width="9.8" height="9.8"/><rect class="cls-2" x="147.06" y="88.23" width="9.8" height="9.81"/><rect class="cls-1" x="147.06" y="78.43" width="9.8" height="9.8"/><rect class="cls-1" x="147.06" y="68.63" width="9.8" height="9.8"/><rect class="cls-1" x="147.06" y="58.82" width="9.8" height="9.81"/><rect class="cls-5" x="147.06" y="49.02" width="9.8" height="9.8"/><rect class="cls-2" x="137.25" y="127.45" width="9.81" height="9.8"/><rect class="cls-2" x="137.25" y="117.65" width="9.81" height="9.8"/><rect class="cls-2" x="137.25" y="107.84" width="9.81" height="9.81"/><rect class="cls-4" x="137.25" y="98.04" width="9.81" height="9.8"/><rect class="cls-6" x="137.25" y="88.23" width="9.81" height="9.81"/><rect class="cls-2" x="137.25" y="78.43" width="9.81" height="9.8"/><rect class="cls-1" x="137.25" y="68.63" width="9.81" height="9.8"/><rect class="cls-2" x="137.25" y="58.82" width="9.81" height="9.81"/><rect class="cls-2" x="127.45" y="127.45" width="9.8" height="9.8"/><rect class="cls-2" x="127.45" y="117.65" width="9.8" height="9.8"/><rect class="cls-2" x="127.45" y="107.84" width="9.8" height="9.81"/><rect class="cls-6" x="127.45" y="98.04" width="9.8" height="9.8"/><rect class="cls-6" x="127.45" y="88.23" width="9.8" height="9.81"/><rect class="cls-2" x="127.45" y="78.43" width="9.8" height="9.8"/><rect class="cls-2" x="127.45" y="68.63" width="9.8" height="9.8"/><rect class="cls-2" x="117.64" y="117.65" width="9.81" height="9.8"/><rect class="cls-2" x="117.64" y="107.84" width="9.81" height="9.81"/><rect class="cls-2" x="117.64" y="98.04" width="9.81" height="9.8"/><rect class="cls-2" x="117.64" y="88.23" width="9.81" height="9.81"/><rect class="cls-1" x="117.64" y="78.43" width="9.81" height="9.8"/><rect class="cls-2" x="117.64" y="68.63" width="9.81" height="9.8"/><rect class="cls-2" x="107.84" y="117.65" width="9.8" height="9.8"/><rect class="cls-2" x="107.84" y="107.84" width="9.8" height="9.81"/><rect class="cls-1" x="107.84" y="98.04" width="9.8" height="9.8"/><rect class="cls-1" x="107.84" y="88.23" width="9.8" height="9.81"/><rect class="cls-1" x="107.84" y="78.43" width="9.8" height="9.8"/><rect class="cls-2" x="107.84" y="68.63" width="9.8" height="9.8"/><rect class="cls-2" x="98.04" y="117.65" width="9.8" height="9.8"/><rect class="cls-4" x="98.04" y="107.84" width="9.8" height="9.81"/><rect class="cls-1" x="98.04" y="98.04" width="9.8" height="9.8"/><rect class="cls-1" x="98.04" y="88.23" width="9.8" height="9.81"/><rect class="cls-5" x="98.04" y="78.43" width="9.8" height="9.8"/><rect class="cls-4" x="98.04" y="68.63" width="9.8" height="9.8"/><rect class="cls-2" x="88.23" y="117.65" width="9.81" height="9.8"/><rect class="cls-4" x="88.23" y="107.84" width="9.81" height="9.81"/><rect class="cls-1" x="88.23" y="98.04" width="9.81" height="9.8"/><rect class="cls-1" x="88.23" y="88.23" width="9.81" height="9.81"/><rect class="cls-2" x="88.23" y="78.43" width="9.81" height="9.8"/><rect class="cls-2" x="78.43" y="117.65" width="9.8" height="9.8"/><rect class="cls-4" x="78.43" y="107.84" width="9.8" height="9.81"/><rect class="cls-1" x="78.43" y="98.04" width="9.8" height="9.8"/><rect class="cls-1" x="78.43" y="88.23" width="9.8" height="9.81"/><rect class="cls-2" x="78.43" y="78.43" width="9.8" height="9.8"/><rect class="cls-4" x="68.63" y="127.45" width="9.8" height="9.8"/><rect class="cls-3" x="68.63" y="117.65" width="9.8" height="9.8"/><rect class="cls-1" x="68.63" y="107.84" width="9.8" height="9.81"/><rect class="cls-1" x="68.63" y="98.04" width="9.8" height="9.8"/><rect class="cls-1" x="68.63" y="88.23" width="9.8" height="9.81"/><rect class="cls-2" x="68.63" y="78.43" width="9.8" height="9.8"/><rect class="cls-2" x="58.82" y="127.45" width="9.81" height="9.8"/><rect class="cls-3" x="58.82" y="117.65" width="9.81" height="9.8"/><rect class="cls-1" x="58.82" y="107.84" width="9.81" height="9.81"/><rect class="cls-1" x="58.82" y="98.04" width="9.81" height="9.8"/><rect class="cls-1" x="58.82" y="88.23" width="9.81" height="9.81"/><rect class="cls-2" x="58.82" y="78.43" width="9.81" height="9.8"/><rect class="cls-2" x="49.02" y="127.45" width="9.8" height="9.8"/><rect class="cls-3" x="49.02" y="117.65" width="9.8" height="9.8"/><rect class="cls-1" x="49.02" y="107.84" width="9.8" height="9.81"/><rect class="cls-1" x="49.02" y="98.04" width="9.8" height="9.8"/><rect class="cls-1" x="49.02" y="88.23" width="9.8" height="9.81"/><rect class="cls-4" x="49.02" y="78.43" width="9.8" height="9.8"/><rect class="cls-2" x="39.21" y="127.45" width="9.81" height="9.8"/><rect class="cls-3" x="39.21" y="117.65" width="9.81" height="9.8"/><rect class="cls-1" x="39.21" y="107.84" width="9.81" height="9.81"/><rect class="cls-1" x="39.21" y="98.04" width="9.81" height="9.8"/><rect class="cls-2" x="39.21" y="88.23" width="9.81" height="9.81"/><rect class="cls-2" x="29.41" y="127.45" width="9.8" height="9.8"/><rect class="cls-3" x="29.41" y="117.65" width="9.8" height="9.8"/><rect class="cls-1" x="29.41" y="107.84" width="9.8" height="9.81"/><rect class="cls-1" x="29.41" y="98.04" width="9.8" height="9.8"/><rect class="cls-2" x="29.41" y="88.23" width="9.8" height="9.81"/><rect class="cls-2" x="19.61" y="127.45" width="9.8" height="9.8"/><rect class="cls-3" x="19.61" y="117.65" width="9.8" height="9.8"/><rect class="cls-1" x="19.61" y="107.84" width="9.8" height="9.81"/><rect class="cls-1" x="19.61" y="98.04" width="9.8" height="9.8"/><rect class="cls-2" x="19.61" y="88.23" width="9.8" height="9.81"/><rect class="cls-2" x="9.8" y="117.65" width="9.81" height="9.8"/><rect class="cls-1" x="9.8" y="107.84" width="9.81" height="9.81"/><rect class="cls-2" x="9.8" y="98.04" width="9.81" height="9.8"/><rect class="cls-1" y="117.65" width="9.8" height="9.8"/><rect class="cls-2" y="107.84" width="9.8" height="9.81"/></g></g></svg>