<svg xmlns="http://www.w3.org/2000/svg" viewBox="0 0 470.59 303.92"><defs><style>.cls-1{fill:#80b8d6;}.cls-2{fill:#01d1d0;}.cls-3{fill:#00c37b;}.cls-4{fill:#88d5ed;}.cls-5{fill:#c8ff16;}.cls-6{fill:#15636b;}.cls-7{fill:#0f999c;}.cls-8{fill:#ff6327;}.cls-9{fill:#ff7e83;}</style></defs><title>Jet-top</title><g id="Layer_2" data-name="Layer 2"><g id="Layer_1-2" data-name="Layer 1"><rect class="cls-1" x="460.79" y="245.1" width="9.8" height="9.8"/><rect class="cls-1" x="460.79" y="235.29" width="9.8" height="9.81"/><rect class="cls-1" x="460.79" y="225.49" width="9.8" height="9.8"/><rect class="cls-1" x="460.79" y="215.69" width="9.8" height="9.8"/><rect class="cls-1" x="450.98" y="245.1" width="9.81" height="9.8"/><rect class="cls-1" x="450.98" y="235.29" width="9.81" height="9.81"/><rect class="cls-1" x="450.98" y="225.49" width="9.81" height="9.8"/><rect class="cls-1" x="450.98" y="215.69" width="9.81" height="9.8"/><rect class="cls-1" x="441.18" y="254.9" width="9.8" height="9.81"/><rect class="cls-2" x="441.18" y="245.1" width="9.8" height="9.8"/><rect class="cls-2" x="441.18" y="235.29" width="9.8" height="9.81"/><rect class="cls-2" x="441.18" y="225.49" width="9.8" height="9.8"/><rect class="cls-2" x="441.18" y="215.69" width="9.8" height="9.8"/><rect class="cls-1" x="441.18" y="205.88" width="9.8" height="9.81"/><rect class="cls-1" x="431.38" y="254.9" width="9.8" height="9.81"/><rect class="cls-2" x="431.38" y="245.1" width="9.8" height="9.8"/><rect class="cls-3" x="431.38" y="235.29" width="9.8" height="9.81"/><rect class="cls-3" x="431.38" y="225.49" width="9.8" height="9.8"/><rect class="cls-3" x="431.38" y="215.69" width="9.8" height="9.8"/><rect class="cls-3" x="431.38" y="205.88" width="9.8" height="9.81"/><rect class="cls-1" x="431.38" y="196.08" width="9.8" height="9.8"/><rect class="cls-1" x="421.57" y="254.9" width="9.81" height="9.81"/><rect class="cls-2" x="421.57" y="245.1" width="9.81" height="9.8"/><rect class="cls-3" x="421.57" y="235.29" width="9.81" height="9.81"/><rect class="cls-3" x="421.57" y="225.49" width="9.81" height="9.8"/><rect class="cls-3" x="421.57" y="215.69" width="9.81" height="9.8"/><rect class="cls-3" x="421.57" y="205.88" width="9.81" height="9.81"/><rect class="cls-1" x="421.57" y="196.08" width="9.81" height="9.8"/><rect class="cls-1" x="411.77" y="254.9" width="9.8" height="9.81"/><rect class="cls-2" x="411.77" y="245.1" width="9.8" height="9.8"/><rect class="cls-3" x="411.77" y="235.29" width="9.8" height="9.81"/><rect class="cls-4" x="411.77" y="225.49" width="9.8" height="9.8"/><rect class="cls-3" x="411.77" y="215.69" width="9.8" height="9.8"/><rect class="cls-3" x="411.77" y="205.88" width="9.8" height="9.81"/><rect class="cls-1" x="411.77" y="196.08" width="9.8" height="9.8"/><rect class="cls-1" x="401.96" y="254.9" width="9.81" height="9.81"/><rect class="cls-2" x="401.96" y="245.1" width="9.81" height="9.8"/><rect class="cls-3" x="401.96" y="235.29" width="9.81" height="9.81"/><rect class="cls-5" x="401.96" y="225.49" width="9.81" height="9.8"/><rect class="cls-3" x="401.96" y="215.69" width="9.81" height="9.8"/><rect class="cls-3" x="401.96" y="205.88" width="9.81" height="9.81"/><rect class="cls-1" x="401.96" y="196.08" width="9.81" height="9.8"/><rect class="cls-1" x="392.16" y="254.9" width="9.8" height="9.81"/><rect class="cls-2" x="392.16" y="245.1" width="9.8" height="9.8"/><rect class="cls-3" x="392.16" y="235.29" width="9.8" height="9.81"/><rect class="cls-3" x="392.16" y="225.49" width="9.8" height="9.8"/><rect class="cls-3" x="392.16" y="215.69" width="9.8" height="9.8"/><rect class="cls-3" x="392.16" y="205.88" width="9.8" height="9.81"/><rect class="cls-1" x="392.16" y="196.08" width="9.8" height="9.8"/><rect class="cls-1" x="392.16" y="186.27" width="9.8" height="9.81"/><rect class="cls-1" x="382.36" y="245.1" width="9.8" height="9.8"/><rect class="cls-3" x="382.36" y="235.29" width="9.8" height="9.81"/><rect class="cls-3" x="382.36" y="225.49" width="9.8" height="9.8"/><rect class="cls-3" x="382.36" y="215.69" width="9.8" height="9.8"/><rect class="cls-3" x="382.36" y="205.88" width="9.8" height="9.81"/><rect class="cls-3" x="382.36" y="196.08" width="9.8" height="9.8"/><rect class="cls-3" x="382.36" y="186.27" width="9.8" height="9.81"/><rect class="cls-1" x="382.36" y="176.47" width="9.8" height="9.8"/><rect class="cls-1" x="372.55" y="245.1" width="9.81" height="9.8"/><rect class="cls-3" x="372.55" y="235.29" width="9.81" height="9.81"/><rect class="cls-3" x="372.55" y="225.49" width="9.81" height="9.8"/><rect class="cls-3" x="372.55" y="215.69" width="9.81" height="9.8"/><rect class="cls-3" x="372.55" y="205.88" width="9.81" height="9.81"/><rect class="cls-3" x="372.55" y="196.08" width="9.81" height="9.8"/><rect class="cls-3" x="372.55" y="186.27" width="9.81" height="9.81"/><rect class="cls-1" x="372.55" y="176.47" width="9.81" height="9.8"/><rect class="cls-1" x="362.75" y="245.1" width="9.8" height="9.8"/><rect class="cls-3" x="362.75" y="235.29" width="9.8" height="9.81"/><rect class="cls-3" x="362.75" y="225.49" width="9.8" height="9.8"/><rect class="cls-3" x="362.75" y="215.69" width="9.8" height="9.8"/><rect class="cls-3" x="362.75" y="205.88" width="9.8" height="9.81"/><rect class="cls-3" x="362.75" y="196.08" width="9.8" height="9.8"/><rect class="cls-3" x="362.75" y="186.27" width="9.8" height="9.81"/><rect class="cls-1" x="362.75" y="176.47" width="9.8" height="9.8"/><rect class="cls-1" x="362.75" y="166.67" width="9.8" height="9.8"/><rect class="cls-1" x="352.95" y="245.1" width="9.8" height="9.8"/><rect class="cls-3" x="352.95" y="235.29" width="9.8" height="9.81"/><rect class="cls-6" x="352.95" y="225.49" width="9.8" height="9.8"/><rect class="cls-3" x="352.95" y="215.69" width="9.8" height="9.8"/><rect class="cls-3" x="352.95" y="205.88" width="9.8" height="9.81"/><rect class="cls-3" x="352.95" y="196.08" width="9.8" height="9.8"/><rect class="cls-3" x="352.95" y="186.27" width="9.8" height="9.81"/><rect class="cls-1" x="352.95" y="176.47" width="9.8" height="9.8"/><rect class="cls-1" x="352.95" y="166.67" width="9.8" height="9.8"/><rect class="cls-1" x="352.95" y="156.86" width="9.8" height="9.81"/><rect class="cls-1" x="352.95" y="147.06" width="9.8" height="9.8"/><rect class="cls-1" x="352.95" y="137.25" width="9.8" height="9.81"/><rect class="cls-1" x="352.95" y="127.45" width="9.8" height="9.8"/><rect class="cls-1" x="352.95" y="117.65" width="9.8" height="9.8"/><rect class="cls-1" x="352.95" y="107.84" width="9.8" height="9.81"/><rect class="cls-1" x="343.14" y="254.9" width="9.81" height="9.81"/><rect class="cls-1" x="343.14" y="245.1" width="9.81" height="9.8"/><rect class="cls-3" x="343.14" y="235.29" width="9.81" height="9.81"/><rect class="cls-6" x="343.14" y="225.49" width="9.81" height="9.8"/><rect class="cls-3" x="343.14" y="215.69" width="9.81" height="9.8"/><rect class="cls-3" x="343.14" y="205.88" width="9.81" height="9.81"/><rect class="cls-3" x="343.14" y="196.08" width="9.81" height="9.8"/><rect class="cls-3" x="343.14" y="186.27" width="9.81" height="9.81"/><rect class="cls-5" x="343.14" y="176.47" width="9.81" height="9.8"/><rect class="cls-1" x="343.14" y="166.67" width="9.81" height="9.8"/><rect class="cls-1" x="343.14" y="156.86" width="9.81" height="9.81"/><rect class="cls-4" x="343.14" y="147.06" width="9.81" height="9.8"/><rect class="cls-3" x="343.14" y="137.25" width="9.81" height="9.81"/><rect class="cls-3" x="343.14" y="127.45" width="9.81" height="9.8"/><rect class="cls-3" x="343.14" y="117.65" width="9.81" height="9.8"/><rect class="cls-5" x="343.14" y="107.84" width="9.81" height="9.81"/><rect class="cls-5" x="343.14" y="98.04" width="9.81" height="9.8"/><rect class="cls-1" x="343.14" y="88.23" width="9.81" height="9.81"/><rect class="cls-1" x="333.34" y="254.9" width="9.8" height="9.81"/><rect class="cls-6" x="333.34" y="245.1" width="9.8" height="9.8"/><rect class="cls-6" x="333.34" y="235.29" width="9.8" height="9.81"/><rect class="cls-6" x="333.34" y="225.49" width="9.8" height="9.8"/><rect class="cls-3" x="333.34" y="215.69" width="9.8" height="9.8"/><rect class="cls-3" x="333.34" y="205.88" width="9.8" height="9.81"/><rect class="cls-3" x="333.34" y="196.08" width="9.8" height="9.8"/><rect class="cls-3" x="333.34" y="186.27" width="9.8" height="9.81"/><rect class="cls-4" x="333.34" y="176.47" width="9.8" height="9.8"/><rect class="cls-3" x="333.34" y="166.67" width="9.8" height="9.8"/><rect class="cls-3" x="333.34" y="156.86" width="9.8" height="9.81"/><rect class="cls-3" x="333.34" y="147.06" width="9.8" height="9.8"/><rect class="cls-1" x="333.34" y="137.25" width="9.8" height="9.81"/><rect class="cls-1" x="333.34" y="127.45" width="9.8" height="9.8"/><rect class="cls-1" x="333.34" y="117.65" width="9.8" height="9.8"/><rect class="cls-1" x="333.34" y="107.84" width="9.8" height="9.81"/><rect class="cls-1" x="323.53" y="254.9" width="9.81" height="9.81"/><rect class="cls-6" x="323.53" y="245.1" width="9.81" height="9.8"/><rect class="cls-6" x="323.53" y="235.29" width="9.81" height="9.81"/><rect class="cls-3" x="323.53" y="225.49" width="9.81" height="9.8"/><rect class="cls-3" x="323.53" y="215.69" width="9.81" height="9.8"/><rect class="cls-3" x="323.53" y="205.88" width="9.81" height="9.81"/><rect class="cls-3" x="323.53" y="196.08" width="9.81" height="9.8"/><rect class="cls-3" x="323.53" y="186.27" width="9.81" height="9.81"/><rect class="cls-3" x="323.53" y="176.47" width="9.81" height="9.8"/><rect class="cls-3" x="323.53" y="166.67" width="9.81" height="9.8"/><rect class="cls-3" x="323.53" y="156.86" width="9.81" height="9.81"/><rect class="cls-1" x="323.53" y="147.06" width="9.81" height="9.8"/><rect class="cls-1" x="313.73" y="254.9" width="9.8" height="9.81"/><rect class="cls-3" x="313.73" y="245.1" width="9.8" height="9.8"/><rect class="cls-6" x="313.73" y="235.29" width="9.8" height="9.81"/><rect class="cls-3" x="313.73" y="225.49" width="9.8" height="9.8"/><rect class="cls-3" x="313.73" y="215.69" width="9.8" height="9.8"/><rect class="cls-3" x="313.73" y="205.88" width="9.8" height="9.81"/><rect class="cls-3" x="313.73" y="196.08" width="9.8" height="9.8"/><rect class="cls-3" x="313.73" y="186.27" width="9.8" height="9.81"/><rect class="cls-3" x="313.73" y="176.47" width="9.8" height="9.8"/><rect class="cls-3" x="313.73" y="166.67" width="9.8" height="9.8"/><rect class="cls-1" x="313.73" y="156.86" width="9.8" height="9.81"/><rect class="cls-1" x="303.93" y="254.9" width="9.8" height="9.81"/><rect class="cls-3" x="303.93" y="245.1" width="9.8" height="9.8"/><rect class="cls-6" x="303.93" y="235.29" width="9.8" height="9.81"/><rect class="cls-6" x="303.93" y="225.49" width="9.8" height="9.8"/><rect class="cls-6" x="303.93" y="215.69" width="9.8" height="9.8"/><rect class="cls-6" x="303.93" y="205.88" width="9.8" height="9.81"/><rect class="cls-6" x="303.93" y="196.08" width="9.8" height="9.8"/><rect class="cls-6" x="303.93" y="186.27" width="9.8" height="9.81"/><rect class="cls-6" x="303.93" y="176.47" width="9.8" height="9.8"/><rect class="cls-6" x="303.93" y="166.67" width="9.8" height="9.8"/><rect class="cls-6" x="303.93" y="156.86" width="9.8" height="9.81"/><rect class="cls-1" x="303.93" y="147.06" width="9.8" height="9.8"/><rect class="cls-1" x="303.93" y="137.25" width="9.8" height="9.81"/><rect class="cls-1" x="294.12" y="254.9" width="9.81" height="9.81"/><rect class="cls-2" x="294.12" y="245.1" width="9.81" height="9.8"/><rect class="cls-7" x="294.12" y="235.29" width="9.81" height="9.81"/><rect class="cls-7" x="294.12" y="225.49" width="9.81" height="9.8"/><rect class="cls-7" x="294.12" y="215.69" width="9.81" height="9.8"/><rect class="cls-7" x="294.12" y="205.88" width="9.81" height="9.81"/><rect class="cls-7" x="294.12" y="196.08" width="9.81" height="9.8"/><rect class="cls-6" x="294.12" y="186.27" width="9.81" height="9.81"/><rect class="cls-6" x="294.12" y="176.47" width="9.81" height="9.8"/><rect class="cls-6" x="294.12" y="166.67" width="9.81" height="9.8"/><rect class="cls-6" x="294.12" y="156.86" width="9.81" height="9.81"/><rect class="cls-6" x="294.12" y="147.06" width="9.81" height="9.8"/><rect class="cls-1" x="294.12" y="137.25" width="9.81" height="9.81"/><rect class="cls-8" x="284.32" y="274.51" width="9.8" height="9.8"/><rect class="cls-8" x="284.32" y="264.71" width="9.8" height="9.8"/><rect class="cls-8" x="284.32" y="254.9" width="9.8" height="9.81"/><rect class="cls-8" x="284.32" y="245.1" width="9.8" height="9.8"/><rect class="cls-8" x="284.32" y="235.29" width="9.8" height="9.81"/><rect class="cls-8" x="284.32" y="225.49" width="9.8" height="9.8"/><rect class="cls-8" x="284.32" y="215.69" width="9.8" height="9.8"/><rect class="cls-8" x="284.32" y="205.88" width="9.8" height="9.81"/><rect class="cls-4" x="284.32" y="196.08" width="9.8" height="9.8"/><rect class="cls-2" x="284.32" y="186.27" width="9.8" height="9.81"/><rect class="cls-2" x="284.32" y="176.47" width="9.8" height="9.8"/><rect class="cls-2" x="284.32" y="166.67" width="9.8" height="9.8"/><rect class="cls-2" x="284.32" y="156.86" width="9.8" height="9.81"/><rect class="cls-2" x="284.32" y="147.06" width="9.8" height="9.8"/><rect class="cls-1" x="284.32" y="137.25" width="9.8" height="9.81"/><rect class="cls-1" x="284.32" y="127.45" width="9.8" height="9.8"/><rect class="cls-1" x="274.51" y="254.9" width="9.81" height="9.81"/><rect class="cls-9" x="274.51" y="245.1" width="9.81" height="9.8"/><rect class="cls-9" x="274.51" y="235.29" width="9.81" height="9.81"/><rect class="cls-9" x="274.51" y="225.49" width="9.81" height="9.8"/><rect class="cls-9" x="274.51" y="215.69" width="9.81" height="9.8"/><rect class="cls-9" x="274.51" y="205.88" width="9.81" height="9.81"/><rect class="cls-9" x="274.51" y="196.08" width="9.81" height="9.8"/><rect class="cls-2" x="274.51" y="186.27" width="9.81" height="9.81"/><rect class="cls-3" x="274.51" y="176.47" width="9.81" height="9.8"/><rect class="cls-3" x="274.51" y="166.67" width="9.81" height="9.8"/><rect class="cls-3" x="274.51" y="156.86" width="9.81" height="9.81"/><rect class="cls-3" x="274.51" y="147.06" width="9.81" height="9.8"/><rect class="cls-3" x="274.51" y="137.25" width="9.81" height="9.81"/><rect class="cls-1" x="274.51" y="127.45" width="9.81" height="9.8"/><rect class="cls-1" x="274.51" y="117.65" width="9.81" height="9.8"/><rect class="cls-1" x="274.51" y="107.84" width="9.81" height="9.81"/><rect class="cls-1" x="274.51" y="98.04" width="9.81" height="9.8"/><rect class="cls-1" x="274.51" y="88.23" width="9.81" height="9.81"/><rect class="cls-1" x="264.71" y="254.9" width="9.8" height="9.81"/><rect class="cls-2" x="264.71" y="245.1" width="9.8" height="9.8"/><rect class="cls-2" x="264.71" y="235.29" width="9.8" height="9.81"/><rect class="cls-2" x="264.71" y="225.49" width="9.8" height="9.8"/><rect class="cls-2" x="264.71" y="215.69" width="9.8" height="9.8"/><rect class="cls-2" x="264.71" y="205.88" width="9.8" height="9.81"/><rect class="cls-2" x="264.71" y="196.08" width="9.8" height="9.8"/><rect class="cls-2" x="264.71" y="186.27" width="9.8" height="9.81"/><rect class="cls-3" x="264.71" y="176.47" width="9.8" height="9.8"/><rect class="cls-3" x="264.71" y="166.67" width="9.8" height="9.8"/><rect class="cls-3" x="264.71" y="156.86" width="9.8" height="9.81"/><rect class="cls-3" x="264.71" y="147.06" width="9.8" height="9.8"/><rect class="cls-3" x="264.71" y="137.25" width="9.8" height="9.81"/><rect class="cls-1" x="264.71" y="127.45" width="9.8" height="9.8"/><rect class="cls-2" x="264.71" y="117.65" width="9.8" height="9.8"/><rect class="cls-2" x="264.71" y="107.84" width="9.8" height="9.81"/><rect class="cls-2" x="264.71" y="98.04" width="9.8" height="9.8"/><rect class="cls-2" x="264.71" y="88.23" width="9.8" height="9.81"/><rect class="cls-1" x="264.71" y="78.43" width="9.8" height="9.8"/><rect class="cls-1" x="264.71" y="68.63" width="9.8" height="9.8"/><rect class="cls-1" x="254.91" y="264.71" width="9.8" height="9.8"/><rect class="cls-1" x="254.91" y="254.9" width="9.8" height="9.81"/><rect class="cls-3" x="254.91" y="245.1" width="9.8" height="9.8"/><rect class="cls-3" x="254.91" y="235.29" width="9.8" height="9.81"/><rect class="cls-3" x="254.91" y="225.49" width="9.8" height="9.8"/><rect class="cls-3" x="254.91" y="215.69" width="9.8" height="9.8"/><rect class="cls-3" x="254.91" y="205.88" width="9.8" height="9.81"/><rect class="cls-3" x="254.91" y="196.08" width="9.8" height="9.8"/><rect class="cls-3" x="254.91" y="186.27" width="9.8" height="9.81"/><rect class="cls-3" x="254.91" y="176.47" width="9.8" height="9.8"/><rect class="cls-3" x="254.91" y="166.67" width="9.8" height="9.8"/><rect class="cls-3" x="254.91" y="156.86" width="9.8" height="9.81"/><rect class="cls-3" x="254.91" y="147.06" width="9.8" height="9.8"/><rect class="cls-3" x="254.91" y="137.25" width="9.8" height="9.81"/><rect class="cls-3" x="254.91" y="127.45" width="9.8" height="9.8"/><rect class="cls-2" x="254.91" y="117.65" width="9.8" height="9.8"/><rect class="cls-1" x="254.91" y="107.84" width="9.8" height="9.81"/><rect class="cls-1" x="254.91" y="98.04" width="9.8" height="9.8"/><rect class="cls-1" x="254.91" y="88.23" width="9.8" height="9.81"/><rect class="cls-4" x="254.91" y="78.43" width="9.8" height="9.8"/><rect class="cls-4" x="254.91" y="68.63" width="9.8" height="9.8"/><rect class="cls-1" x="254.91" y="58.82" width="9.8" height="9.81"/><rect class="cls-1" x="254.91" y="49.02" width="9.8" height="9.8"/><rect class="cls-1" x="254.91" y="39.22" width="9.8" height="9.8"/><rect class="cls-1" x="245.1" y="274.51" width="9.81" height="9.8"/><rect class="cls-1" x="245.1" y="264.71" width="9.81" height="9.8"/><rect class="cls-1" x="245.1" y="254.9" width="9.81" height="9.81"/><rect class="cls-3" x="245.1" y="245.1" width="9.81" height="9.8"/><rect class="cls-3" x="245.1" y="235.29" width="9.81" height="9.81"/><rect class="cls-3" x="245.1" y="225.49" width="9.81" height="9.8"/><rect class="cls-3" x="245.1" y="215.69" width="9.81" height="9.8"/><rect class="cls-3" x="245.1" y="205.88" width="9.81" height="9.81"/><rect class="cls-3" x="245.1" y="196.08" width="9.81" height="9.8"/><rect class="cls-3" x="245.1" y="186.27" width="9.81" height="9.81"/><rect class="cls-3" x="245.1" y="176.47" width="9.81" height="9.8"/><rect class="cls-3" x="245.1" y="166.67" width="9.81" height="9.8"/><rect class="cls-3" x="245.1" y="156.86" width="9.81" height="9.81"/><rect class="cls-3" x="245.1" y="147.06" width="9.81" height="9.8"/><rect class="cls-3" x="245.1" y="137.25" width="9.81" height="9.81"/><rect class="cls-3" x="245.1" y="127.45" width="9.81" height="9.8"/><rect class="cls-1" x="245.1" y="117.65" width="9.81" height="9.8"/><rect class="cls-4" x="245.1" y="107.84" width="9.81" height="9.81"/><rect class="cls-4" x="245.1" y="98.04" width="9.81" height="9.8"/><rect class="cls-4" x="245.1" y="88.23" width="9.81" height="9.81"/><rect class="cls-4" x="245.1" y="78.43" width="9.81" height="9.8"/><rect class="cls-4" x="245.1" y="68.63" width="9.81" height="9.8"/><rect class="cls-4" x="245.1" y="58.82" width="9.81" height="9.81"/><rect class="cls-4" x="245.1" y="49.02" width="9.81" height="9.8"/><rect class="cls-4" x="245.1" y="39.22" width="9.81" height="9.8"/><rect class="cls-1" x="245.1" y="29.41" width="9.81" height="9.81"/><rect class="cls-1" x="235.3" y="294.12" width="9.8" height="9.8"/><rect class="cls-1" x="235.3" y="284.31" width="9.8" height="9.81"/><rect class="cls-1" x="235.3" y="274.51" width="9.8" height="9.8"/><rect class="cls-1" x="235.3" y="264.71" width="9.8" height="9.8"/><rect class="cls-1" x="235.3" y="254.9" width="9.8" height="9.81"/><rect class="cls-1" x="235.3" y="245.1" width="9.8" height="9.8"/><rect class="cls-1" x="235.3" y="235.29" width="9.8" height="9.81"/><rect class="cls-1" x="235.3" y="225.49" width="9.8" height="9.8"/><rect class="cls-1" x="235.3" y="215.69" width="9.8" height="9.8"/><rect class="cls-1" x="235.3" y="205.88" width="9.8" height="9.81"/><rect class="cls-1" x="235.3" y="196.08" width="9.8" height="9.8"/><rect class="cls-1" x="235.3" y="186.27" width="9.8" height="9.81"/><rect class="cls-3" x="235.3" y="176.47" width="9.8" height="9.8"/><rect class="cls-3" x="235.3" y="166.67" width="9.8" height="9.8"/><rect class="cls-3" x="235.3" y="156.86" width="9.8" height="9.81"/><rect class="cls-3" x="235.3" y="147.06" width="9.8" height="9.8"/><rect class="cls-3" x="235.3" y="137.25" width="9.8" height="9.81"/><rect class="cls-3" x="235.3" y="127.45" width="9.8" height="9.8"/><rect class="cls-4" x="235.3" y="117.65" width="9.8" height="9.8"/><rect class="cls-4" x="235.3" y="107.84" width="9.8" height="9.81"/><rect class="cls-4" x="235.3" y="98.04" width="9.8" height="9.8"/><rect class="cls-4" x="235.3" y="88.23" width="9.8" height="9.81"/><rect class="cls-4" x="235.3" y="78.43" width="9.8" height="9.8"/><rect class="cls-4" x="235.3" y="68.63" width="9.8" height="9.8"/><rect class="cls-4" x="235.3" y="58.82" width="9.8" height="9.81"/><rect class="cls-4" x="235.3" y="49.02" width="9.8" height="9.8"/><rect class="cls-4" x="235.3" y="39.22" width="9.8" height="9.8"/><rect class="cls-4" x="235.3" y="29.41" width="9.8" height="9.81"/><rect class="cls-1" x="235.3" y="19.61" width="9.8" height="9.8"/><rect class="cls-1" x="235.3" y="9.8" width="9.8" height="9.81"/><rect class="cls-1" x="235.3" width="9.8" height="9.8"/><rect class="cls-1" x="225.49" y="294.12" width="9.81" height="9.8"/><rect class="cls-1" x="225.49" y="284.31" width="9.81" height="9.81"/><rect class="cls-1" x="225.49" y="274.51" width="9.81" height="9.8"/><rect class="cls-1" x="225.49" y="264.71" width="9.81" height="9.8"/><rect class="cls-1" x="225.49" y="254.9" width="9.81" height="9.81"/><rect class="cls-1" x="225.49" y="245.1" width="9.81" height="9.8"/><rect class="cls-1" x="225.49" y="235.29" width="9.81" height="9.81"/><rect class="cls-1" x="225.49" y="225.49" width="9.81" height="9.8"/><rect class="cls-1" x="225.49" y="215.69" width="9.81" height="9.8"/><rect class="cls-1" x="225.49" y="205.88" width="9.81" height="9.81"/><rect class="cls-1" x="225.49" y="196.08" width="9.81" height="9.8"/><rect class="cls-1" x="225.49" y="186.27" width="9.81" height="9.81"/><rect class="cls-3" x="225.49" y="176.47" width="9.81" height="9.8"/><rect class="cls-3" x="225.49" y="166.67" width="9.81" height="9.8"/><rect class="cls-3" x="225.49" y="156.86" width="9.81" height="9.81"/><rect class="cls-3" x="225.49" y="147.06" width="9.81" height="9.8"/><rect class="cls-3" x="225.49" y="137.25" width="9.81" height="9.81"/><rect class="cls-3" x="225.49" y="127.45" width="9.81" height="9.8"/><rect class="cls-4" x="225.49" y="117.65" width="9.81" height="9.8"/><rect class="cls-4" x="225.49" y="107.84" width="9.81" height="9.81"/><rect class="cls-4" x="225.49" y="98.04" width="9.81" height="9.8"/><rect class="cls-4" x="225.49" y="88.23" width="9.81" height="9.81"/><rect class="cls-4" x="225.49" y="78.43" width="9.81" height="9.8"/><rect class="cls-4" x="225.49" y="68.63" width="9.81" height="9.8"/><rect class="cls-4" x="225.49" y="58.82" width="9.81" height="9.81"/><rect class="cls-4" x="225.49" y="49.02" width="9.81" height="9.8"/><rect class="cls-4" x="225.49" y="39.22" width="9.81" height="9.8"/><rect class="cls-4" x="225.49" y="29.41" width="9.81" height="9.81"/><rect class="cls-1" x="225.49" y="19.61" width="9.81" height="9.8"/><rect class="cls-1" x="225.49" y="9.8" width="9.81" height="9.81"/><rect class="cls-1" x="225.49" width="9.81" height="9.8"/><rect class="cls-1" x="215.69" y="274.51" width="9.8" height="9.8"/><rect class="cls-1" x="215.69" y="264.71" width="9.8" height="9.8"/><rect class="cls-1" x="215.69" y="254.9" width="9.8" height="9.81"/><rect class="cls-3" x="215.69" y="245.1" width="9.8" height="9.8"/><rect class="cls-3" x="215.69" y="235.29" width="9.8" height="9.81"/><rect class="cls-3" x="215.69" y="225.49" width="9.8" height="9.8"/><rect class="cls-3" x="215.69" y="215.69" width="9.8" height="9.8"/><rect class="cls-3" x="215.69" y="205.88" width="9.8" height="9.81"/><rect class="cls-3" x="215.69" y="196.08" width="9.8" height="9.8"/><rect class="cls-3" x="215.69" y="186.27" width="9.8" height="9.81"/><rect class="cls-3" x="215.69" y="176.47" width="9.8" height="9.8"/><rect class="cls-3" x="215.69" y="166.67" width="9.8" height="9.8"/><rect class="cls-3" x="215.69" y="156.86" width="9.8" height="9.81"/><rect class="cls-3" x="215.69" y="147.06" width="9.8" height="9.8"/><rect class="cls-3" x="215.69" y="137.25" width="9.8" height="9.81"/><rect class="cls-3" x="215.69" y="127.45" width="9.8" height="9.8"/><rect class="cls-1" x="215.69" y="117.65" width="9.8" height="9.8"/><rect class="cls-4" x="215.69" y="107.84" width="9.8" height="9.81"/><rect class="cls-4" x="215.69" y="98.04" width="9.8" height="9.8"/><rect class="cls-4" x="215.69" y="88.23" width="9.8" height="9.81"/><rect class="cls-4" x="215.69" y="78.43" width="9.8" height="9.8"/><rect class="cls-4" x="215.69" y="68.63" width="9.8" height="9.8"/><rect class="cls-4" x="215.69" y="58.82" width="9.8" height="9.81"/><rect class="cls-4" x="215.69" y="49.02" width="9.8" height="9.8"/><rect class="cls-4" x="215.69" y="39.22" width="9.8" height="9.8"/><rect class="cls-1" x="215.69" y="29.41" width="9.8" height="9.81"/><rect class="cls-1" x="205.89" y="264.71" width="9.8" height="9.8"/><rect class="cls-1" x="205.89" y="254.9" width="9.8" height="9.81"/><rect class="cls-3" x="205.89" y="245.1" width="9.8" height="9.8"/><rect class="cls-3" x="205.89" y="235.29" width="9.8" height="9.81"/><rect class="cls-3" x="205.89" y="225.49" width="9.8" height="9.8"/><rect class="cls-3" x="205.89" y="215.69" width="9.8" height="9.8"/><rect class="cls-3" x="205.89" y="205.88" width="9.8" height="9.81"/><rect class="cls-3" x="205.89" y="196.08" width="9.8" height="9.8"/><rect class="cls-3" x="205.89" y="186.27" width="9.8" height="9.81"/><rect class="cls-3" x="205.89" y="176.47" width="9.8" height="9.8"/><rect class="cls-3" x="205.89" y="166.67" width="9.8" height="9.8"/><rect class="cls-3" x="205.89" y="156.86" width="9.8" height="9.81"/><rect class="cls-3" x="205.89" y="147.06" width="9.8" height="9.8"/><rect class="cls-3" x="205.89" y="137.25" width="9.8" height="9.81"/><rect class="cls-3" x="205.89" y="127.45" width="9.8" height="9.8"/><rect class="cls-2" x="205.89" y="117.65" width="9.8" height="9.8"/><rect class="cls-1" x="205.89" y="107.84" width="9.8" height="9.81"/><rect class="cls-1" x="205.89" y="98.04" width="9.8" height="9.8"/><rect class="cls-1" x="205.89" y="88.23" width="9.8" height="9.81"/><rect class="cls-4" x="205.89" y="78.43" width="9.8" height="9.8"/><rect class="cls-4" x="205.89" y="68.63" width="9.8" height="9.8"/><rect class="cls-1" x="205.89" y="58.82" width="9.8" height="9.81"/><rect class="cls-1" x="205.89" y="49.02" width="9.8" height="9.8"/><rect class="cls-1" x="205.89" y="39.22" width="9.8" height="9.8"/><rect class="cls-1" x="196.08" y="254.9" width="9.81" height="9.81"/><rect class="cls-2" x="196.08" y="245.1" width="9.81" height="9.8"/><rect class="cls-2" x="196.08" y="235.29" width="9.81" height="9.81"/><rect class="cls-2" x="196.08" y="225.49" width="9.81" height="9.8"/><rect class="cls-2" x="196.08" y="215.69" width="9.81" height="9.8"/><rect class="cls-2" x="196.08" y="205.88" width="9.81" height="9.81"/><rect class="cls-2" x="196.08" y="196.08" width="9.81" height="9.8"/><rect class="cls-2" x="196.08" y="186.27" width="9.81" height="9.81"/><rect class="cls-3" x="196.08" y="176.47" width="9.81" height="9.8"/><rect class="cls-3" x="196.08" y="166.67" width="9.81" height="9.8"/><rect class="cls-3" x="196.08" y="156.86" width="9.81" height="9.81"/><rect class="cls-3" x="196.08" y="147.06" width="9.81" height="9.8"/><rect class="cls-3" x="196.08" y="137.25" width="9.81" height="9.81"/><rect class="cls-1" x="196.08" y="127.45" width="9.81" height="9.8"/><rect class="cls-2" x="196.08" y="117.65" width="9.81" height="9.8"/><rect class="cls-2" x="196.08" y="107.84" width="9.81" height="9.81"/><rect class="cls-2" x="196.08" y="98.04" width="9.81" height="9.8"/><rect class="cls-2" x="196.08" y="88.23" width="9.81" height="9.81"/><rect class="cls-1" x="196.08" y="78.43" width="9.81" height="9.8"/><rect class="cls-1" x="196.08" y="68.63" width="9.81" height="9.8"/><rect class="cls-1" x="186.28" y="254.9" width="9.8" height="9.81"/><rect class="cls-9" x="186.28" y="245.1" width="9.8" height="9.8"/><rect class="cls-9" x="186.28" y="235.29" width="9.8" height="9.81"/><rect class="cls-9" x="186.28" y="225.49" width="9.8" height="9.8"/><rect class="cls-9" x="186.28" y="215.69" width="9.8" height="9.8"/><rect class="cls-9" x="186.28" y="205.88" width="9.8" height="9.81"/><rect class="cls-9" x="186.28" y="196.08" width="9.8" height="9.8"/><rect class="cls-2" x="186.28" y="186.27" width="9.8" height="9.81"/><rect class="cls-3" x="186.28" y="176.47" width="9.8" height="9.8"/><rect class="cls-3" x="186.28" y="166.67" width="9.8" height="9.8"/><rect class="cls-3" x="186.28" y="156.86" width="9.8" height="9.81"/><rect class="cls-3" x="186.28" y="147.06" width="9.8" height="9.8"/><rect class="cls-3" x="186.28" y="137.25" width="9.8" height="9.81"/><rect class="cls-1" x="186.28" y="127.45" width="9.8" height="9.8"/><rect class="cls-1" x="186.28" y="117.65" width="9.8" height="9.8"/><rect class="cls-1" x="186.28" y="107.84" width="9.8" height="9.81"/><rect class="cls-1" x="186.28" y="98.04" width="9.8" height="9.8"/><rect class="cls-1" x="186.28" y="88.23" width="9.8" height="9.81"/><rect class="cls-8" x="176.47" y="274.51" width="9.81" height="9.8"/><rect class="cls-8" x="176.47" y="264.71" width="9.81" height="9.8"/><rect class="cls-8" x="176.47" y="254.9" width="9.81" height="9.81"/><rect class="cls-8" x="176.47" y="245.1" width="9.81" height="9.8"/><rect class="cls-8" x="176.47" y="235.29" width="9.81" height="9.81"/><rect class="cls-8" x="176.47" y="225.49" width="9.81" height="9.8"/><rect class="cls-8" x="176.47" y="215.69" width="9.81" height="9.8"/><rect class="cls-8" x="176.47" y="205.88" width="9.81" height="9.81"/><rect class="cls-4" x="176.47" y="196.08" width="9.81" height="9.8"/><rect class="cls-2" x="176.47" y="186.27" width="9.81" height="9.81"/><rect class="cls-2" x="176.47" y="176.47" width="9.81" height="9.8"/><rect class="cls-2" x="176.47" y="166.67" width="9.81" height="9.8"/><rect class="cls-2" x="176.47" y="156.86" width="9.81" height="9.81"/><rect class="cls-2" x="176.47" y="147.06" width="9.81" height="9.8"/><rect class="cls-1" x="176.47" y="137.25" width="9.81" height="9.81"/><rect class="cls-1" x="176.47" y="127.45" width="9.81" height="9.8"/><rect class="cls-1" x="166.67" y="254.9" width="9.8" height="9.81"/><rect class="cls-2" x="166.67" y="245.1" width="9.8" height="9.8"/><rect class="cls-7" x="166.67" y="235.29" width="9.8" height="9.81"/><rect class="cls-7" x="166.67" y="225.49" width="9.8" height="9.8"/><rect class="cls-7" x="166.67" y="215.69" width="9.8" height="9.8"/><rect class="cls-7" x="166.67" y="205.88" width="9.8" height="9.81"/><rect class="cls-7" x="166.67" y="196.08" width="9.8" height="9.8"/><rect class="cls-6" x="166.67" y="186.27" width="9.8" height="9.81"/><rect class="cls-6" x="166.67" y="176.47" width="9.8" height="9.8"/><rect class="cls-6" x="166.67" y="166.67" width="9.8" height="9.8"/><rect class="cls-6" x="166.67" y="156.86" width="9.8" height="9.81"/><rect class="cls-6" x="166.67" y="147.06" width="9.8" height="9.8"/><rect class="cls-1" x="166.67" y="137.25" width="9.8" height="9.81"/><rect class="cls-1" x="156.87" y="254.9" width="9.8" height="9.81"/><rect class="cls-3" x="156.87" y="245.1" width="9.8" height="9.8"/><rect class="cls-6" x="156.87" y="235.29" width="9.8" height="9.81"/><rect class="cls-6" x="156.87" y="225.49" width="9.8" height="9.8"/><rect class="cls-6" x="156.87" y="215.69" width="9.8" height="9.8"/><rect class="cls-6" x="156.87" y="205.88" width="9.8" height="9.81"/><rect class="cls-6" x="156.87" y="196.08" width="9.8" height="9.8"/><rect class="cls-6" x="156.87" y="186.27" width="9.8" height="9.81"/><rect class="cls-6" x="156.87" y="176.47" width="9.8" height="9.8"/><rect class="cls-6" x="156.87" y="166.67" width="9.8" height="9.8"/><rect class="cls-6" x="156.87" y="156.86" width="9.8" height="9.81"/><rect class="cls-1" x="156.87" y="147.06" width="9.8" height="9.8"/><rect class="cls-1" x="156.87" y="137.25" width="9.8" height="9.81"/><rect class="cls-1" x="147.06" y="254.9" width="9.81" height="9.81"/><rect class="cls-3" x="147.06" y="245.1" width="9.81" height="9.8"/><rect class="cls-6" x="147.06" y="235.29" width="9.81" height="9.81"/><rect class="cls-3" x="147.06" y="225.49" width="9.81" height="9.8"/><rect class="cls-3" x="147.06" y="215.69" width="9.81" height="9.8"/><rect class="cls-3" x="147.06" y="205.88" width="9.81" height="9.81"/><rect class="cls-3" x="147.06" y="196.08" width="9.81" height="9.8"/><rect class="cls-3" x="147.06" y="186.27" width="9.81" height="9.81"/><rect class="cls-3" x="147.06" y="176.47" width="9.81" height="9.8"/><rect class="cls-3" x="147.06" y="166.67" width="9.81" height="9.8"/><rect class="cls-1" x="147.06" y="156.86" width="9.81" height="9.81"/><rect class="cls-1" x="137.26" y="254.9" width="9.8" height="9.81"/><rect class="cls-6" x="137.26" y="245.1" width="9.8" height="9.8"/><rect class="cls-6" x="137.26" y="235.29" width="9.8" height="9.81"/><rect class="cls-3" x="137.26" y="225.49" width="9.8" height="9.8"/><rect class="cls-3" x="137.26" y="215.69" width="9.8" height="9.8"/><rect class="cls-3" x="137.26" y="205.88" width="9.8" height="9.81"/><rect class="cls-3" x="137.26" y="196.08" width="9.8" height="9.8"/><rect class="cls-3" x="137.26" y="186.27" width="9.8" height="9.81"/><rect class="cls-3" x="137.26" y="176.47" width="9.8" height="9.8"/><rect class="cls-3" x="137.26" y="166.67" width="9.8" height="9.8"/><rect class="cls-3" x="137.26" y="156.86" width="9.8" height="9.81"/><rect class="cls-1" x="137.26" y="147.06" width="9.8" height="9.8"/><rect class="cls-1" x="127.45" y="254.9" width="9.81" height="9.81"/><rect class="cls-6" x="127.45" y="245.1" width="9.81" height="9.8"/><rect class="cls-6" x="127.45" y="235.29" width="9.81" height="9.81"/><rect class="cls-6" x="127.45" y="225.49" width="9.81" height="9.8"/><rect class="cls-3" x="127.45" y="215.69" width="9.81" height="9.8"/><rect class="cls-3" x="127.45" y="205.88" width="9.81" height="9.81"/><rect class="cls-3" x="127.45" y="196.08" width="9.81" height="9.8"/><rect class="cls-3" x="127.45" y="186.27" width="9.81" height="9.81"/><rect class="cls-4" x="127.45" y="176.47" width="9.81" height="9.8"/><rect class="cls-3" x="127.45" y="166.67" width="9.81" height="9.8"/><rect class="cls-3" x="127.45" y="156.86" width="9.81" height="9.81"/><rect class="cls-3" x="127.45" y="147.06" width="9.81" height="9.8"/><rect class="cls-1" x="127.45" y="137.25" width="9.81" height="9.81"/><rect class="cls-1" x="127.45" y="127.45" width="9.81" height="9.8"/><rect class="cls-1" x="127.45" y="117.65" width="9.81" height="9.8"/><rect class="cls-1" x="127.45" y="107.84" width="9.81" height="9.81"/><rect class="cls-1" x="117.65" y="254.9" width="9.8" height="9.81"/><rect class="cls-1" x="117.65" y="245.1" width="9.8" height="9.8"/><rect class="cls-3" x="117.65" y="235.29" width="9.8" height="9.81"/><rect class="cls-6" x="117.65" y="225.49" width="9.8" height="9.8"/><rect class="cls-3" x="117.65" y="215.69" width="9.8" height="9.8"/><rect class="cls-3" x="117.65" y="205.88" width="9.8" height="9.81"/><rect class="cls-3" x="117.65" y="196.08" width="9.8" height="9.8"/><rect class="cls-3" x="117.65" y="186.27" width="9.8" height="9.81"/><rect class="cls-5" x="117.65" y="176.47" width="9.8" height="9.8"/><rect class="cls-1" x="117.65" y="166.67" width="9.8" height="9.8"/><rect class="cls-1" x="117.65" y="156.86" width="9.8" height="9.81"/><rect class="cls-4" x="117.65" y="147.06" width="9.8" height="9.8"/><rect class="cls-3" x="117.65" y="137.25" width="9.8" height="9.81"/><rect class="cls-3" x="117.65" y="127.45" width="9.8" height="9.8"/><rect class="cls-3" x="117.65" y="117.65" width="9.8" height="9.8"/><rect class="cls-5" x="117.65" y="107.84" width="9.8" height="9.81"/><rect class="cls-5" x="117.65" y="98.04" width="9.8" height="9.8"/><rect class="cls-1" x="117.65" y="88.23" width="9.8" height="9.81"/><rect class="cls-1" x="107.85" y="245.1" width="9.8" height="9.8"/><rect class="cls-3" x="107.85" y="235.29" width="9.8" height="9.81"/><rect class="cls-6" x="107.85" y="225.49" width="9.8" height="9.8"/><rect class="cls-3" x="107.85" y="215.69" width="9.8" height="9.8"/><rect class="cls-3" x="107.85" y="205.88" width="9.8" height="9.81"/><rect class="cls-3" x="107.85" y="196.08" width="9.8" height="9.8"/><rect class="cls-3" x="107.85" y="186.27" width="9.8" height="9.81"/><rect class="cls-1" x="107.85" y="176.47" width="9.8" height="9.8"/><rect class="cls-1" x="107.85" y="166.67" width="9.8" height="9.8"/><rect class="cls-1" x="107.85" y="156.86" width="9.8" height="9.81"/><rect class="cls-1" x="107.85" y="147.06" width="9.8" height="9.8"/><rect class="cls-1" x="107.85" y="137.25" width="9.8" height="9.81"/><rect class="cls-1" x="107.85" y="127.45" width="9.8" height="9.8"/><rect class="cls-1" x="107.85" y="117.65" width="9.8" height="9.8"/><rect class="cls-1" x="107.85" y="107.84" width="9.8" height="9.81"/><rect class="cls-1" x="98.04" y="245.1" width="9.81" height="9.8"/><rect class="cls-3" x="98.04" y="235.29" width="9.81" height="9.81"/><rect class="cls-3" x="98.04" y="225.49" width="9.81" height="9.8"/><rect class="cls-3" x="98.04" y="215.69" width="9.81" height="9.8"/><rect class="cls-3" x="98.04" y="205.88" width="9.81" height="9.81"/><rect class="cls-3" x="98.04" y="196.08" width="9.81" height="9.8"/><rect class="cls-3" x="98.04" y="186.27" width="9.81" height="9.81"/><rect class="cls-1" x="98.04" y="176.47" width="9.81" height="9.8"/><rect class="cls-1" x="98.04" y="166.67" width="9.81" height="9.8"/><rect class="cls-1" x="88.24" y="245.1" width="9.8" height="9.8"/><rect class="cls-3" x="88.24" y="235.29" width="9.8" height="9.81"/><rect class="cls-3" x="88.24" y="225.49" width="9.8" height="9.8"/><rect class="cls-3" x="88.24" y="215.69" width="9.8" height="9.8"/><rect class="cls-3" x="88.24" y="205.88" width="9.8" height="9.81"/><rect class="cls-3" x="88.24" y="196.08" width="9.8" height="9.8"/><rect class="cls-3" x="88.24" y="186.27" width="9.8" height="9.81"/><rect class="cls-1" x="88.24" y="176.47" width="9.8" height="9.8"/><rect class="cls-1" x="78.44" y="245.1" width="9.8" height="9.8"/><rect class="cls-3" x="78.44" y="235.29" width="9.8" height="9.81"/><rect class="cls-3" x="78.44" y="225.49" width="9.8" height="9.8"/><rect class="cls-3" x="78.44" y="215.69" width="9.8" height="9.8"/><rect class="cls-3" x="78.44" y="205.88" width="9.8" height="9.81"/><rect class="cls-3" x="78.44" y="196.08" width="9.8" height="9.8"/><rect class="cls-3" x="78.44" y="186.27" width="9.8" height="9.81"/><rect class="cls-1" x="78.44" y="176.47" width="9.8" height="9.8"/><rect class="cls-1" x="68.63" y="254.9" width="9.81" height="9.81"/><rect class="cls-2" x="68.63" y="245.1" width="9.81" height="9.8"/><rect class="cls-3" x="68.63" y="235.29" width="9.81" height="9.81"/><rect class="cls-3" x="68.63" y="225.49" width="9.81" height="9.8"/><rect class="cls-3" x="68.63" y="215.69" width="9.81" height="9.8"/><rect class="cls-3" x="68.63" y="205.88" width="9.81" height="9.81"/><rect class="cls-1" x="68.63" y="196.08" width="9.81" height="9.8"/><rect class="cls-1" x="68.63" y="186.27" width="9.81" height="9.81"/><rect class="cls-1" x="58.83" y="254.9" width="9.8" height="9.81"/><rect class="cls-2" x="58.83" y="245.1" width="9.8" height="9.8"/><rect class="cls-3" x="58.83" y="235.29" width="9.8" height="9.81"/><rect class="cls-5" x="58.83" y="225.49" width="9.8" height="9.8"/><rect class="cls-3" x="58.83" y="215.69" width="9.8" height="9.8"/><rect class="cls-3" x="58.83" y="205.88" width="9.8" height="9.81"/><rect class="cls-1" x="58.83" y="196.08" width="9.8" height="9.8"/><rect class="cls-1" x="49.02" y="254.9" width="9.81" height="9.81"/><rect class="cls-2" x="49.02" y="245.1" width="9.81" height="9.8"/><rect class="cls-3" x="49.02" y="235.29" width="9.81" height="9.81"/><rect class="cls-4" x="49.02" y="225.49" width="9.81" height="9.8"/><rect class="cls-3" x="49.02" y="215.69" width="9.81" height="9.8"/><rect class="cls-3" x="49.02" y="205.88" width="9.81" height="9.81"/><rect class="cls-1" x="49.02" y="196.08" width="9.81" height="9.8"/><rect class="cls-1" x="39.22" y="254.9" width="9.8" height="9.81"/><rect class="cls-2" x="39.22" y="245.1" width="9.8" height="9.8"/><rect class="cls-3" x="39.22" y="235.29" width="9.8" height="9.81"/><rect class="cls-3" x="39.22" y="225.49" width="9.8" height="9.8"/><rect class="cls-3" x="39.22" y="215.69" width="9.8" height="9.8"/><rect class="cls-3" x="39.22" y="205.88" width="9.8" height="9.81"/><rect class="cls-1" x="39.22" y="196.08" width="9.8" height="9.8"/><rect class="cls-1" x="29.42" y="254.9" width="9.8" height="9.81"/><rect class="cls-2" x="29.42" y="245.1" width="9.8" height="9.8"/><rect class="cls-3" x="29.42" y="235.29" width="9.8" height="9.81"/><rect class="cls-3" x="29.42" y="225.49" width="9.8" height="9.8"/><rect class="cls-3" x="29.42" y="215.69" width="9.8" height="9.8"/><rect class="cls-1" x="29.42" y="205.88" width="9.8" height="9.81"/><rect class="cls-1" x="19.61" y="254.9" width="9.81" height="9.81"/><rect class="cls-2" x="19.61" y="245.1" width="9.81" height="9.8"/><rect class="cls-2" x="19.61" y="235.29" width="9.81" height="9.81"/><rect class="cls-2" x="19.61" y="225.49" width="9.81" height="9.8"/><rect class="cls-2" x="19.61" y="215.69" width="9.81" height="9.8"/><rect class="cls-1" x="19.61" y="205.88" width="9.81" height="9.81"/><rect class="cls-1" x="9.81" y="245.1" width="9.8" height="9.8"/><rect class="cls-1" x="9.81" y="235.29" width="9.8" height="9.81"/><rect class="cls-1" x="9.81" y="225.49" width="9.8" height="9.8"/><rect class="cls-1" x="9.81" y="215.69" width="9.8" height="9.8"/><rect class="cls-1" y="245.1" width="9.81" height="9.8"/><rect class="cls-1" y="235.29" width="9.81" height="9.81"/><rect class="cls-1" y="225.49" width="9.81" height="9.8"/><rect class="cls-1" y="215.69" width="9.81" height="9.8"/></g></g></svg>