<svg xmlns="http://www.w3.org/2000/svg" viewBox="0 0 431.37 225.5"><defs><style>.cls-1{fill:#7e39ba;}.cls-2{fill:#c8ff16;}.cls-3{fill:#6d64cc;}.cls-4{fill:#4701a7;}.cls-5{fill:#80b8d6;}.cls-6{fill:#88d5ed;}.cls-7{fill:#0f999c;}.cls-8{fill:#ff6327;}</style></defs><title>bug1</title><g id="Layer_2" data-name="Layer 2"><g id="Layer_1-2" data-name="Layer 1"><rect class="cls-1" x="421.57" y="117.65" width="9.8" height="9.81"/><rect class="cls-1" x="421.57" y="107.85" width="9.8" height="9.8"/><rect class="cls-1" x="421.57" y="98.04" width="9.8" height="9.81"/><rect class="cls-1" x="421.57" y="88.24" width="9.8" height="9.8"/><rect class="cls-1" x="411.77" y="127.46" width="9.8" height="9.8"/><rect class="cls-2" x="411.77" y="117.65" width="9.8" height="9.81"/><rect class="cls-2" x="411.77" y="107.85" width="9.8" height="9.8"/><rect class="cls-2" x="411.77" y="98.04" width="9.8" height="9.81"/><rect class="cls-2" x="411.77" y="88.24" width="9.8" height="9.8"/><rect class="cls-1" x="411.77" y="78.44" width="9.8" height="9.8"/><rect class="cls-1" x="401.96" y="137.26" width="9.81" height="9.8"/><rect class="cls-3" x="401.96" y="127.46" width="9.81" height="9.8"/><rect class="cls-2" x="401.96" y="117.65" width="9.81" height="9.81"/><rect class="cls-2" x="401.96" y="107.85" width="9.81" height="9.8"/><rect class="cls-2" x="401.96" y="98.04" width="9.81" height="9.81"/><rect class="cls-2" x="401.96" y="88.24" width="9.81" height="9.8"/><rect class="cls-3" x="401.96" y="78.44" width="9.81" height="9.8"/><rect class="cls-1" x="401.96" y="68.63" width="9.81" height="9.81"/><rect class="cls-1" x="392.16" y="147.06" width="9.8" height="9.81"/><rect class="cls-3" x="392.16" y="137.26" width="9.8" height="9.8"/><rect class="cls-3" x="392.16" y="127.46" width="9.8" height="9.8"/><rect class="cls-3" x="392.16" y="117.65" width="9.8" height="9.81"/><rect class="cls-3" x="392.16" y="107.85" width="9.8" height="9.8"/><rect class="cls-3" x="392.16" y="98.04" width="9.8" height="9.81"/><rect class="cls-3" x="392.16" y="88.24" width="9.8" height="9.8"/><rect class="cls-3" x="392.16" y="78.44" width="9.8" height="9.8"/><rect class="cls-3" x="392.16" y="68.63" width="9.8" height="9.81"/><rect class="cls-1" x="392.16" y="58.83" width="9.8" height="9.8"/><rect class="cls-1" x="382.35" y="156.87" width="9.81" height="9.8"/><rect class="cls-3" x="382.35" y="147.06" width="9.81" height="9.81"/><rect class="cls-3" x="382.35" y="137.26" width="9.81" height="9.8"/><rect class="cls-1" x="382.35" y="127.46" width="9.81" height="9.8"/><rect class="cls-3" x="382.35" y="107.85" width="9.81" height="9.8"/><rect class="cls-3" x="382.35" y="98.04" width="9.81" height="9.81"/><rect class="cls-1" x="382.35" y="78.44" width="9.81" height="9.8"/><rect class="cls-3" x="382.35" y="68.63" width="9.81" height="9.81"/><rect class="cls-3" x="382.35" y="58.83" width="9.81" height="9.8"/><rect class="cls-1" x="382.35" y="49.02" width="9.81" height="9.81"/><rect class="cls-1" x="372.55" y="156.87" width="9.8" height="9.8"/><rect class="cls-3" x="372.55" y="147.06" width="9.8" height="9.81"/><rect class="cls-1" x="372.55" y="137.26" width="9.8" height="9.8"/><rect class="cls-3" x="372.55" y="107.85" width="9.8" height="9.8"/><rect class="cls-3" x="372.55" y="98.04" width="9.8" height="9.81"/><rect class="cls-1" x="372.55" y="68.63" width="9.8" height="9.81"/><rect class="cls-3" x="372.55" y="58.83" width="9.8" height="9.8"/><rect class="cls-1" x="372.55" y="49.02" width="9.8" height="9.81"/><rect class="cls-4" x="362.75" y="166.67" width="9.8" height="9.81"/><rect class="cls-1" x="362.75" y="147.06" width="9.8" height="9.81"/><rect class="cls-3" x="362.75" y="107.85" width="9.8" height="9.8"/><rect class="cls-3" x="362.75" y="98.04" width="9.8" height="9.81"/><rect class="cls-1" x="362.75" y="58.83" width="9.8" height="9.8"/><rect class="cls-4" x="362.75" y="39.22" width="9.8" height="9.8"/><rect class="cls-3" x="352.94" y="117.65" width="9.81" height="9.81"/><rect class="cls-1" x="352.94" y="107.85" width="9.81" height="9.8"/><rect class="cls-1" x="352.94" y="98.04" width="9.81" height="9.81"/><rect class="cls-3" x="352.94" y="88.24" width="9.81" height="9.8"/><rect class="cls-3" x="343.14" y="117.65" width="9.8" height="9.81"/><rect class="cls-1" x="343.14" y="107.85" width="9.8" height="9.8"/><rect class="cls-1" x="343.14" y="98.04" width="9.8" height="9.81"/><rect class="cls-3" x="343.14" y="88.24" width="9.8" height="9.8"/><rect class="cls-3" x="333.34" y="127.46" width="9.8" height="9.8"/><rect class="cls-3" x="333.34" y="117.65" width="9.8" height="9.81"/><rect class="cls-1" x="333.34" y="107.85" width="9.8" height="9.8"/><rect class="cls-1" x="333.34" y="98.04" width="9.8" height="9.81"/><rect class="cls-3" x="333.34" y="88.24" width="9.8" height="9.8"/><rect class="cls-3" x="333.34" y="78.44" width="9.8" height="9.8"/><rect class="cls-3" x="323.53" y="137.26" width="9.81" height="9.8"/><rect class="cls-3" x="323.53" y="127.46" width="9.81" height="9.8"/><rect class="cls-3" x="323.53" y="117.65" width="9.81" height="9.81"/><rect class="cls-1" x="323.53" y="107.85" width="9.81" height="9.8"/><rect class="cls-1" x="323.53" y="98.04" width="9.81" height="9.81"/><rect class="cls-3" x="323.53" y="88.24" width="9.81" height="9.8"/><rect class="cls-3" x="323.53" y="78.44" width="9.81" height="9.8"/><rect class="cls-3" x="323.53" y="68.63" width="9.81" height="9.81"/><rect class="cls-3" x="313.73" y="137.26" width="9.8" height="9.8"/><rect class="cls-3" x="313.73" y="127.46" width="9.8" height="9.8"/><rect class="cls-3" x="313.73" y="117.65" width="9.8" height="9.81"/><rect class="cls-1" x="313.73" y="107.85" width="9.8" height="9.8"/><rect class="cls-1" x="313.73" y="98.04" width="9.8" height="9.81"/><rect class="cls-3" x="313.73" y="88.24" width="9.8" height="9.8"/><rect class="cls-3" x="313.73" y="78.44" width="9.8" height="9.8"/><rect class="cls-3" x="313.73" y="68.63" width="9.8" height="9.81"/><rect class="cls-3" x="303.92" y="147.06" width="9.81" height="9.81"/><rect class="cls-3" x="303.92" y="137.26" width="9.81" height="9.8"/><rect class="cls-3" x="303.92" y="127.46" width="9.81" height="9.8"/><rect class="cls-3" x="303.92" y="117.65" width="9.81" height="9.81"/><rect class="cls-4" x="303.92" y="107.85" width="9.81" height="9.8"/><rect class="cls-4" x="303.92" y="98.04" width="9.81" height="9.81"/><rect class="cls-3" x="303.92" y="88.24" width="9.81" height="9.8"/><rect class="cls-3" x="303.92" y="78.44" width="9.81" height="9.8"/><rect class="cls-3" x="303.92" y="68.63" width="9.81" height="9.81"/><rect class="cls-3" x="303.92" y="58.83" width="9.81" height="9.8"/><rect class="cls-3" x="294.12" y="156.87" width="9.8" height="9.8"/><rect class="cls-3" x="294.12" y="147.06" width="9.8" height="9.81"/><rect class="cls-3" x="294.12" y="137.26" width="9.8" height="9.8"/><rect class="cls-1" x="294.12" y="127.46" width="9.8" height="9.8"/><rect class="cls-3" x="294.12" y="117.65" width="9.8" height="9.81"/><rect class="cls-4" x="294.12" y="107.85" width="9.8" height="9.8"/><rect class="cls-4" x="294.12" y="98.04" width="9.8" height="9.81"/><rect class="cls-3" x="294.12" y="88.24" width="9.8" height="9.8"/><rect class="cls-1" x="294.12" y="78.44" width="9.8" height="9.8"/><rect class="cls-3" x="294.12" y="68.63" width="9.8" height="9.81"/><rect class="cls-3" x="294.12" y="58.83" width="9.8" height="9.8"/><rect class="cls-3" x="294.12" y="49.02" width="9.8" height="9.81"/><rect class="cls-3" x="284.32" y="156.87" width="9.8" height="9.8"/><rect class="cls-3" x="284.32" y="147.06" width="9.8" height="9.81"/><rect class="cls-1" x="284.32" y="137.26" width="9.8" height="9.8"/><rect class="cls-4" x="284.32" y="127.46" width="9.8" height="9.8"/><rect class="cls-3" x="284.32" y="117.65" width="9.8" height="9.81"/><rect class="cls-4" x="284.32" y="107.85" width="9.8" height="9.8"/><rect class="cls-4" x="284.32" y="98.04" width="9.8" height="9.81"/><rect class="cls-3" x="284.32" y="88.24" width="9.8" height="9.8"/><rect class="cls-4" x="284.32" y="78.44" width="9.8" height="9.8"/><rect class="cls-1" x="284.32" y="68.63" width="9.8" height="9.81"/><rect class="cls-3" x="284.32" y="58.83" width="9.8" height="9.8"/><rect class="cls-3" x="284.32" y="49.02" width="9.8" height="9.81"/><rect class="cls-3" x="274.51" y="166.67" width="9.81" height="9.81"/><rect class="cls-3" x="274.51" y="156.87" width="9.81" height="9.8"/><rect class="cls-3" x="274.51" y="147.06" width="9.81" height="9.81"/><rect class="cls-3" x="274.51" y="137.26" width="9.81" height="9.8"/><rect class="cls-3" x="274.51" y="127.46" width="9.81" height="9.8"/><rect class="cls-3" x="274.51" y="117.65" width="9.81" height="9.81"/><rect class="cls-4" x="274.51" y="107.85" width="9.81" height="9.8"/><rect class="cls-4" x="274.51" y="98.04" width="9.81" height="9.81"/><rect class="cls-3" x="274.51" y="88.24" width="9.81" height="9.8"/><rect class="cls-3" x="274.51" y="78.44" width="9.81" height="9.8"/><rect class="cls-3" x="274.51" y="68.63" width="9.81" height="9.81"/><rect class="cls-3" x="274.51" y="58.83" width="9.81" height="9.8"/><rect class="cls-3" x="274.51" y="49.02" width="9.81" height="9.81"/><rect class="cls-3" x="274.51" y="39.22" width="9.81" height="9.8"/><rect class="cls-5" x="264.71" y="186.28" width="9.8" height="9.8"/><rect class="cls-5" x="264.71" y="176.48" width="9.8" height="9.8"/><rect class="cls-5" x="264.71" y="166.67" width="9.8" height="9.81"/><rect class="cls-1" x="264.71" y="156.87" width="9.8" height="9.8"/><rect class="cls-4" x="264.71" y="147.06" width="9.8" height="9.81"/><rect class="cls-3" x="264.71" y="137.26" width="9.8" height="9.8"/><rect class="cls-3" x="264.71" y="127.46" width="9.8" height="9.8"/><rect class="cls-3" x="264.71" y="117.65" width="9.8" height="9.81"/><rect class="cls-4" x="264.71" y="107.85" width="9.8" height="9.8"/><rect class="cls-4" x="264.71" y="98.04" width="9.8" height="9.81"/><rect class="cls-3" x="264.71" y="88.24" width="9.8" height="9.8"/><rect class="cls-3" x="264.71" y="78.44" width="9.8" height="9.8"/><rect class="cls-3" x="264.71" y="68.63" width="9.8" height="9.81"/><rect class="cls-3" x="264.71" y="58.83" width="9.8" height="9.8"/><rect class="cls-1" x="264.71" y="49.02" width="9.8" height="9.81"/><rect class="cls-3" x="264.71" y="39.22" width="9.8" height="9.8"/><rect class="cls-5" x="254.9" y="186.28" width="9.81" height="9.8"/><rect class="cls-6" x="254.9" y="176.48" width="9.81" height="9.8"/><rect class="cls-6" x="254.9" y="166.67" width="9.81" height="9.81"/><rect class="cls-5" x="254.9" y="156.87" width="9.81" height="9.8"/><rect class="cls-1" x="254.9" y="147.06" width="9.81" height="9.81"/><rect class="cls-3" x="254.9" y="137.26" width="9.81" height="9.8"/><rect class="cls-3" x="254.9" y="127.46" width="9.81" height="9.8"/><rect class="cls-3" x="254.9" y="117.65" width="9.81" height="9.81"/><rect class="cls-4" x="254.9" y="107.85" width="9.81" height="9.8"/><rect class="cls-4" x="254.9" y="98.04" width="9.81" height="9.81"/><rect class="cls-3" x="254.9" y="88.24" width="9.81" height="9.8"/><rect class="cls-3" x="254.9" y="78.44" width="9.81" height="9.8"/><rect class="cls-3" x="254.9" y="68.63" width="9.81" height="9.81"/><rect class="cls-1" x="254.9" y="58.83" width="9.81" height="9.8"/><rect class="cls-4" x="254.9" y="49.02" width="9.81" height="9.81"/><rect class="cls-3" x="254.9" y="39.22" width="9.81" height="9.8"/><rect class="cls-7" x="254.9" y="29.42" width="9.81" height="9.8"/><rect class="cls-3" x="245.1" y="196.08" width="9.8" height="9.81"/><rect class="cls-5" x="245.1" y="186.28" width="9.8" height="9.8"/><rect class="cls-6" x="245.1" y="176.48" width="9.8" height="9.8"/><rect class="cls-6" x="245.1" y="166.67" width="9.8" height="9.81"/><rect class="cls-6" x="245.1" y="156.87" width="9.8" height="9.8"/><rect class="cls-5" x="245.1" y="147.06" width="9.8" height="9.81"/><rect class="cls-1" x="245.1" y="137.26" width="9.8" height="9.8"/><rect class="cls-1" x="245.1" y="127.46" width="9.8" height="9.8"/><rect class="cls-4" x="245.1" y="117.65" width="9.8" height="9.81"/><rect class="cls-4" x="245.1" y="107.85" width="9.8" height="9.8"/><rect class="cls-4" x="245.1" y="98.04" width="9.8" height="9.81"/><rect class="cls-4" x="245.1" y="88.24" width="9.8" height="9.8"/><rect class="cls-1" x="245.1" y="78.44" width="9.8" height="9.8"/><rect class="cls-1" x="245.1" y="68.63" width="9.8" height="9.81"/><rect class="cls-3" x="245.1" y="58.83" width="9.8" height="9.8"/><rect class="cls-3" x="245.1" y="49.02" width="9.8" height="9.81"/><rect class="cls-3" x="245.1" y="39.22" width="9.8" height="9.8"/><rect class="cls-7" x="245.1" y="29.42" width="9.8" height="9.8"/><rect class="cls-3" x="235.3" y="196.08" width="9.8" height="9.81"/><rect class="cls-5" x="235.3" y="186.28" width="9.8" height="9.8"/><rect class="cls-6" x="235.3" y="176.48" width="9.8" height="9.8"/><rect class="cls-6" x="235.3" y="166.67" width="9.8" height="9.81"/><rect class="cls-2" x="235.3" y="156.87" width="9.8" height="9.8"/><rect class="cls-5" x="235.3" y="147.06" width="9.8" height="9.81"/><rect class="cls-1" x="235.3" y="137.26" width="9.8" height="9.8"/><rect class="cls-4" x="235.3" y="127.46" width="9.8" height="9.8"/><rect class="cls-1" x="235.3" y="117.65" width="9.8" height="9.81"/><rect class="cls-1" x="235.3" y="107.85" width="9.8" height="9.8"/><rect class="cls-1" x="235.3" y="98.04" width="9.8" height="9.81"/><rect class="cls-1" x="235.3" y="88.24" width="9.8" height="9.8"/><rect class="cls-4" x="235.3" y="78.44" width="9.8" height="9.8"/><rect class="cls-1" x="235.3" y="68.63" width="9.8" height="9.81"/><rect class="cls-3" x="235.3" y="58.83" width="9.8" height="9.8"/><rect class="cls-3" x="235.3" y="49.02" width="9.8" height="9.81"/><rect class="cls-3" x="235.3" y="39.22" width="9.8" height="9.8"/><rect class="cls-7" x="235.3" y="29.42" width="9.8" height="9.8"/><rect class="cls-7" x="235.3" y="19.61" width="9.8" height="9.81"/><rect class="cls-3" x="225.49" y="205.89" width="9.81" height="9.8"/><rect class="cls-3" x="225.49" y="196.08" width="9.81" height="9.81"/><rect class="cls-5" x="225.49" y="186.28" width="9.81" height="9.8"/><rect class="cls-5" x="225.49" y="176.48" width="9.81" height="9.8"/><rect class="cls-5" x="225.49" y="166.67" width="9.81" height="9.81"/><rect class="cls-5" x="225.49" y="156.87" width="9.81" height="9.8"/><rect class="cls-5" x="225.49" y="147.06" width="9.81" height="9.81"/><rect class="cls-4" x="225.49" y="137.26" width="9.81" height="9.8"/><rect class="cls-1" x="225.49" y="127.46" width="9.81" height="9.8"/><rect class="cls-8" x="225.49" y="117.65" width="9.81" height="9.81"/><rect class="cls-8" x="225.49" y="107.85" width="9.81" height="9.8"/><rect class="cls-8" x="225.49" y="98.04" width="9.81" height="9.81"/><rect class="cls-8" x="225.49" y="88.24" width="9.81" height="9.8"/><rect class="cls-1" x="225.49" y="78.44" width="9.81" height="9.8"/><rect class="cls-4" x="225.49" y="68.63" width="9.81" height="9.81"/><rect class="cls-3" x="225.49" y="58.83" width="9.81" height="9.8"/><rect class="cls-3" x="225.49" y="49.02" width="9.81" height="9.81"/><rect class="cls-3" x="225.49" y="39.22" width="9.81" height="9.8"/><rect class="cls-7" x="225.49" y="29.42" width="9.81" height="9.8"/><rect class="cls-7" x="225.49" y="19.61" width="9.81" height="9.81"/><rect class="cls-7" x="225.49" y="9.81" width="9.81" height="9.8"/><rect class="cls-3" x="215.69" y="215.69" width="9.8" height="9.81"/><rect class="cls-3" x="215.69" y="205.89" width="9.8" height="9.8"/><rect class="cls-4" x="215.69" y="196.08" width="9.8" height="9.81"/><rect class="cls-4" x="215.69" y="186.28" width="9.8" height="9.8"/><rect class="cls-4" x="215.69" y="176.48" width="9.8" height="9.8"/><rect class="cls-4" x="215.69" y="166.67" width="9.8" height="9.81"/><rect class="cls-4" x="215.69" y="156.87" width="9.8" height="9.8"/><rect class="cls-4" x="215.69" y="147.06" width="9.8" height="9.81"/><rect class="cls-4" x="215.69" y="137.26" width="9.8" height="9.8"/><rect class="cls-1" x="215.69" y="127.46" width="9.8" height="9.8"/><rect class="cls-8" x="215.69" y="117.65" width="9.8" height="9.81"/><rect class="cls-2" x="215.69" y="107.85" width="9.8" height="9.8"/><rect class="cls-2" x="215.69" y="98.04" width="9.8" height="9.81"/><rect class="cls-8" x="215.69" y="88.24" width="9.8" height="9.8"/><rect class="cls-1" x="215.69" y="78.44" width="9.8" height="9.8"/><rect class="cls-4" x="215.69" y="68.63" width="9.8" height="9.81"/><rect class="cls-4" x="215.69" y="58.83" width="9.8" height="9.8"/><rect class="cls-4" x="215.69" y="49.02" width="9.8" height="9.81"/><rect class="cls-4" x="215.69" y="39.22" width="9.8" height="9.8"/><rect class="cls-4" x="215.69" y="29.42" width="9.8" height="9.8"/><rect class="cls-4" x="215.69" y="19.61" width="9.8" height="9.81"/><rect class="cls-4" x="215.69" y="9.81" width="9.8" height="9.8"/><rect class="cls-2" x="215.69" width="9.8" height="9.81"/><rect class="cls-3" x="205.88" y="215.69" width="9.81" height="9.81"/><rect class="cls-3" x="205.88" y="205.89" width="9.81" height="9.8"/><rect class="cls-4" x="205.88" y="196.08" width="9.81" height="9.81"/><rect class="cls-4" x="205.88" y="186.28" width="9.81" height="9.8"/><rect class="cls-4" x="205.88" y="176.48" width="9.81" height="9.8"/><rect class="cls-4" x="205.88" y="166.67" width="9.81" height="9.81"/><rect class="cls-4" x="205.88" y="156.87" width="9.81" height="9.8"/><rect class="cls-4" x="205.88" y="147.06" width="9.81" height="9.81"/><rect class="cls-4" x="205.88" y="137.26" width="9.81" height="9.8"/><rect class="cls-1" x="205.88" y="127.46" width="9.81" height="9.8"/><rect class="cls-8" x="205.88" y="117.65" width="9.81" height="9.81"/><rect class="cls-2" x="205.88" y="107.85" width="9.81" height="9.8"/><rect class="cls-2" x="205.88" y="98.04" width="9.81" height="9.81"/><rect class="cls-8" x="205.88" y="88.24" width="9.81" height="9.8"/><rect class="cls-1" x="205.88" y="78.44" width="9.81" height="9.8"/><rect class="cls-4" x="205.88" y="68.63" width="9.81" height="9.81"/><rect class="cls-4" x="205.88" y="58.83" width="9.81" height="9.8"/><rect class="cls-4" x="205.88" y="49.02" width="9.81" height="9.81"/><rect class="cls-4" x="205.88" y="39.22" width="9.81" height="9.8"/><rect class="cls-4" x="205.88" y="29.42" width="9.81" height="9.8"/><rect class="cls-4" x="205.88" y="19.61" width="9.81" height="9.81"/><rect class="cls-4" x="205.88" y="9.81" width="9.81" height="9.8"/><rect class="cls-2" x="205.88" width="9.81" height="9.81"/><rect class="cls-3" x="196.08" y="205.89" width="9.8" height="9.8"/><rect class="cls-3" x="196.08" y="196.08" width="9.8" height="9.81"/><rect class="cls-5" x="196.08" y="186.28" width="9.8" height="9.8"/><rect class="cls-5" x="196.08" y="176.48" width="9.8" height="9.8"/><rect class="cls-5" x="196.08" y="166.67" width="9.8" height="9.81"/><rect class="cls-5" x="196.08" y="156.87" width="9.8" height="9.8"/><rect class="cls-5" x="196.08" y="147.06" width="9.8" height="9.81"/><rect class="cls-4" x="196.08" y="137.26" width="9.8" height="9.8"/><rect class="cls-1" x="196.08" y="127.46" width="9.8" height="9.8"/><rect class="cls-8" x="196.08" y="117.65" width="9.8" height="9.81"/><rect class="cls-8" x="196.08" y="107.85" width="9.8" height="9.8"/><rect class="cls-8" x="196.08" y="98.04" width="9.8" height="9.81"/><rect class="cls-8" x="196.08" y="88.24" width="9.8" height="9.8"/><rect class="cls-1" x="196.08" y="78.44" width="9.8" height="9.8"/><rect class="cls-4" x="196.08" y="68.63" width="9.8" height="9.81"/><rect class="cls-3" x="196.08" y="58.83" width="9.8" height="9.8"/><rect class="cls-3" x="196.08" y="49.02" width="9.8" height="9.81"/><rect class="cls-3" x="196.08" y="39.22" width="9.8" height="9.8"/><rect class="cls-7" x="196.08" y="29.42" width="9.8" height="9.8"/><rect class="cls-7" x="196.08" y="19.61" width="9.8" height="9.81"/><rect class="cls-7" x="196.08" y="9.81" width="9.8" height="9.8"/><rect class="cls-3" x="186.28" y="196.08" width="9.8" height="9.81"/><rect class="cls-5" x="186.28" y="186.28" width="9.8" height="9.8"/><rect class="cls-6" x="186.28" y="176.48" width="9.8" height="9.8"/><rect class="cls-6" x="186.28" y="166.67" width="9.8" height="9.81"/><rect class="cls-2" x="186.28" y="156.87" width="9.8" height="9.8"/><rect class="cls-5" x="186.28" y="147.06" width="9.8" height="9.81"/><rect class="cls-1" x="186.28" y="137.26" width="9.8" height="9.8"/><rect class="cls-4" x="186.28" y="127.46" width="9.8" height="9.8"/><rect class="cls-1" x="186.28" y="117.65" width="9.8" height="9.81"/><rect class="cls-1" x="186.28" y="107.85" width="9.8" height="9.8"/><rect class="cls-1" x="186.28" y="98.04" width="9.8" height="9.81"/><rect class="cls-1" x="186.28" y="88.24" width="9.8" height="9.8"/><rect class="cls-4" x="186.28" y="78.44" width="9.8" height="9.8"/><rect class="cls-1" x="186.28" y="68.63" width="9.8" height="9.81"/><rect class="cls-3" x="186.28" y="58.83" width="9.8" height="9.8"/><rect class="cls-3" x="186.28" y="49.02" width="9.8" height="9.81"/><rect class="cls-3" x="186.28" y="39.22" width="9.8" height="9.8"/><rect class="cls-7" x="186.28" y="29.42" width="9.8" height="9.8"/><rect class="cls-7" x="186.28" y="19.61" width="9.8" height="9.81"/><rect class="cls-3" x="176.47" y="196.08" width="9.81" height="9.81"/><rect class="cls-5" x="176.47" y="186.28" width="9.81" height="9.8"/><rect class="cls-6" x="176.47" y="176.48" width="9.81" height="9.8"/><rect class="cls-6" x="176.47" y="166.67" width="9.81" height="9.81"/><rect class="cls-6" x="176.47" y="156.87" width="9.81" height="9.8"/><rect class="cls-5" x="176.47" y="147.06" width="9.81" height="9.81"/><rect class="cls-1" x="176.47" y="137.26" width="9.81" height="9.8"/><rect class="cls-1" x="176.47" y="127.46" width="9.81" height="9.8"/><rect class="cls-4" x="176.47" y="117.65" width="9.81" height="9.81"/><rect class="cls-4" x="176.47" y="107.85" width="9.81" height="9.8"/><rect class="cls-4" x="176.47" y="98.04" width="9.81" height="9.81"/><rect class="cls-4" x="176.47" y="88.24" width="9.81" height="9.8"/><rect class="cls-1" x="176.47" y="78.44" width="9.81" height="9.8"/><rect class="cls-1" x="176.47" y="68.63" width="9.81" height="9.81"/><rect class="cls-3" x="176.47" y="58.83" width="9.81" height="9.8"/><rect class="cls-3" x="176.47" y="49.02" width="9.81" height="9.81"/><rect class="cls-3" x="176.47" y="39.22" width="9.81" height="9.8"/><rect class="cls-7" x="176.47" y="29.42" width="9.81" height="9.8"/><rect class="cls-5" x="166.67" y="186.28" width="9.8" height="9.8"/><rect class="cls-6" x="166.67" y="176.48" width="9.8" height="9.8"/><rect class="cls-6" x="166.67" y="166.67" width="9.8" height="9.81"/><rect class="cls-5" x="166.67" y="156.87" width="9.8" height="9.8"/><rect class="cls-1" x="166.67" y="147.06" width="9.8" height="9.81"/><rect class="cls-3" x="166.67" y="137.26" width="9.8" height="9.8"/><rect class="cls-3" x="166.67" y="127.46" width="9.8" height="9.8"/><rect class="cls-3" x="166.67" y="117.65" width="9.8" height="9.81"/><rect class="cls-4" x="166.67" y="107.85" width="9.8" height="9.8"/><rect class="cls-4" x="166.67" y="98.04" width="9.8" height="9.81"/><rect class="cls-3" x="166.67" y="88.24" width="9.8" height="9.8"/><rect class="cls-3" x="166.67" y="78.44" width="9.8" height="9.8"/><rect class="cls-3" x="166.67" y="68.63" width="9.8" height="9.81"/><rect class="cls-1" x="166.67" y="58.83" width="9.8" height="9.8"/><rect class="cls-4" x="166.67" y="49.02" width="9.8" height="9.81"/><rect class="cls-3" x="166.67" y="39.22" width="9.8" height="9.8"/><rect class="cls-7" x="166.67" y="29.42" width="9.8" height="9.8"/><rect class="cls-5" x="156.86" y="186.28" width="9.81" height="9.8"/><rect class="cls-5" x="156.86" y="176.48" width="9.81" height="9.8"/><rect class="cls-5" x="156.86" y="166.67" width="9.81" height="9.81"/><rect class="cls-1" x="156.86" y="156.87" width="9.81" height="9.8"/><rect class="cls-4" x="156.86" y="147.06" width="9.81" height="9.81"/><rect class="cls-3" x="156.86" y="137.26" width="9.81" height="9.8"/><rect class="cls-3" x="156.86" y="127.46" width="9.81" height="9.8"/><rect class="cls-3" x="156.86" y="117.65" width="9.81" height="9.81"/><rect class="cls-4" x="156.86" y="107.85" width="9.81" height="9.8"/><rect class="cls-4" x="156.86" y="98.04" width="9.81" height="9.81"/><rect class="cls-3" x="156.86" y="88.24" width="9.81" height="9.8"/><rect class="cls-3" x="156.86" y="78.44" width="9.81" height="9.8"/><rect class="cls-3" x="156.86" y="68.63" width="9.81" height="9.81"/><rect class="cls-3" x="156.86" y="58.83" width="9.81" height="9.8"/><rect class="cls-1" x="156.86" y="49.02" width="9.81" height="9.81"/><rect class="cls-3" x="156.86" y="39.22" width="9.81" height="9.8"/><rect class="cls-3" x="147.06" y="166.67" width="9.8" height="9.81"/><rect class="cls-3" x="147.06" y="156.87" width="9.8" height="9.8"/><rect class="cls-3" x="147.06" y="147.06" width="9.8" height="9.81"/><rect class="cls-3" x="147.06" y="137.26" width="9.8" height="9.8"/><rect class="cls-3" x="147.06" y="127.46" width="9.8" height="9.8"/><rect class="cls-3" x="147.06" y="117.65" width="9.8" height="9.81"/><rect class="cls-4" x="147.06" y="107.85" width="9.8" height="9.8"/><rect class="cls-4" x="147.06" y="98.04" width="9.8" height="9.81"/><rect class="cls-3" x="147.06" y="88.24" width="9.8" height="9.8"/><rect class="cls-3" x="147.06" y="78.44" width="9.8" height="9.8"/><rect class="cls-3" x="147.06" y="68.63" width="9.8" height="9.81"/><rect class="cls-3" x="147.06" y="58.83" width="9.8" height="9.8"/><rect class="cls-3" x="147.06" y="49.02" width="9.8" height="9.81"/><rect class="cls-3" x="147.06" y="39.22" width="9.8" height="9.8"/><rect class="cls-3" x="137.26" y="156.87" width="9.8" height="9.8"/><rect class="cls-3" x="137.26" y="147.06" width="9.8" height="9.81"/><rect class="cls-1" x="137.26" y="137.26" width="9.8" height="9.8"/><rect class="cls-4" x="137.26" y="127.46" width="9.8" height="9.8"/><rect class="cls-3" x="137.26" y="117.65" width="9.8" height="9.81"/><rect class="cls-4" x="137.26" y="107.85" width="9.8" height="9.8"/><rect class="cls-4" x="137.26" y="98.04" width="9.8" height="9.81"/><rect class="cls-3" x="137.26" y="88.24" width="9.8" height="9.8"/><rect class="cls-4" x="137.26" y="78.44" width="9.8" height="9.8"/><rect class="cls-1" x="137.26" y="68.63" width="9.8" height="9.81"/><rect class="cls-3" x="137.26" y="58.83" width="9.8" height="9.8"/><rect class="cls-3" x="137.26" y="49.02" width="9.8" height="9.81"/><rect class="cls-3" x="127.45" y="156.87" width="9.81" height="9.8"/><rect class="cls-3" x="127.45" y="147.06" width="9.81" height="9.81"/><rect class="cls-3" x="127.45" y="137.26" width="9.81" height="9.8"/><rect class="cls-1" x="127.45" y="127.46" width="9.81" height="9.8"/><rect class="cls-3" x="127.45" y="117.65" width="9.81" height="9.81"/><rect class="cls-4" x="127.45" y="107.85" width="9.81" height="9.8"/><rect class="cls-4" x="127.45" y="98.04" width="9.81" height="9.81"/><rect class="cls-3" x="127.45" y="88.24" width="9.81" height="9.8"/><rect class="cls-1" x="127.45" y="78.44" width="9.81" height="9.8"/><rect class="cls-3" x="127.45" y="68.63" width="9.81" height="9.81"/><rect class="cls-3" x="127.45" y="58.83" width="9.81" height="9.8"/><rect class="cls-3" x="127.45" y="49.02" width="9.81" height="9.81"/><rect class="cls-3" x="117.65" y="147.06" width="9.8" height="9.81"/><rect class="cls-3" x="117.65" y="137.26" width="9.8" height="9.8"/><rect class="cls-3" x="117.65" y="127.46" width="9.8" height="9.8"/><rect class="cls-3" x="117.65" y="117.65" width="9.8" height="9.81"/><rect class="cls-4" x="117.65" y="107.85" width="9.8" height="9.8"/><rect class="cls-4" x="117.65" y="98.04" width="9.8" height="9.81"/><rect class="cls-3" x="117.65" y="88.24" width="9.8" height="9.8"/><rect class="cls-3" x="117.65" y="78.44" width="9.8" height="9.8"/><rect class="cls-3" x="117.65" y="68.63" width="9.8" height="9.81"/><rect class="cls-3" x="117.65" y="58.83" width="9.8" height="9.8"/><rect class="cls-3" x="107.84" y="137.26" width="9.81" height="9.8"/><rect class="cls-3" x="107.84" y="127.46" width="9.81" height="9.8"/><rect class="cls-3" x="107.84" y="117.65" width="9.81" height="9.81"/><rect class="cls-1" x="107.84" y="107.85" width="9.81" height="9.8"/><rect class="cls-1" x="107.84" y="98.04" width="9.81" height="9.81"/><rect class="cls-3" x="107.84" y="88.24" width="9.81" height="9.8"/><rect class="cls-3" x="107.84" y="78.44" width="9.81" height="9.8"/><rect class="cls-3" x="107.84" y="68.63" width="9.81" height="9.81"/><rect class="cls-3" x="98.04" y="137.26" width="9.8" height="9.8"/><rect class="cls-3" x="98.04" y="127.46" width="9.8" height="9.8"/><rect class="cls-3" x="98.04" y="117.65" width="9.8" height="9.81"/><rect class="cls-1" x="98.04" y="107.85" width="9.8" height="9.8"/><rect class="cls-1" x="98.04" y="98.04" width="9.8" height="9.81"/><rect class="cls-3" x="98.04" y="88.24" width="9.8" height="9.8"/><rect class="cls-3" x="98.04" y="78.44" width="9.8" height="9.8"/><rect class="cls-3" x="98.04" y="68.63" width="9.8" height="9.81"/><rect class="cls-3" x="88.24" y="127.46" width="9.8" height="9.8"/><rect class="cls-3" x="88.24" y="117.65" width="9.8" height="9.81"/><rect class="cls-1" x="88.24" y="107.85" width="9.8" height="9.8"/><rect class="cls-1" x="88.24" y="98.04" width="9.8" height="9.81"/><rect class="cls-3" x="88.24" y="88.24" width="9.8" height="9.8"/><rect class="cls-3" x="88.24" y="78.44" width="9.8" height="9.8"/><rect class="cls-3" x="78.43" y="117.65" width="9.81" height="9.81"/><rect class="cls-1" x="78.43" y="107.85" width="9.81" height="9.8"/><rect class="cls-1" x="78.43" y="98.04" width="9.81" height="9.81"/><rect class="cls-3" x="78.43" y="88.24" width="9.81" height="9.8"/><rect class="cls-3" x="68.63" y="117.65" width="9.8" height="9.81"/><rect class="cls-1" x="68.63" y="107.85" width="9.8" height="9.8"/><rect class="cls-1" x="68.63" y="98.04" width="9.8" height="9.81"/><rect class="cls-3" x="68.63" y="88.24" width="9.8" height="9.8"/><rect class="cls-4" x="58.83" y="166.67" width="9.8" height="9.81"/><rect class="cls-1" x="58.83" y="147.06" width="9.8" height="9.81"/><rect class="cls-3" x="58.83" y="107.85" width="9.8" height="9.8"/><rect class="cls-3" x="58.83" y="98.04" width="9.8" height="9.81"/><rect class="cls-1" x="58.83" y="58.83" width="9.8" height="9.8"/><rect class="cls-4" x="58.83" y="39.22" width="9.8" height="9.8"/><rect class="cls-1" x="49.02" y="156.87" width="9.81" height="9.8"/><rect class="cls-3" x="49.02" y="147.06" width="9.81" height="9.81"/><rect class="cls-1" x="49.02" y="137.26" width="9.81" height="9.8"/><rect class="cls-3" x="49.02" y="107.85" width="9.81" height="9.8"/><rect class="cls-3" x="49.02" y="98.04" width="9.81" height="9.81"/><rect class="cls-1" x="49.02" y="68.63" width="9.81" height="9.81"/><rect class="cls-3" x="49.02" y="58.83" width="9.81" height="9.8"/><rect class="cls-1" x="49.02" y="49.02" width="9.81" height="9.81"/><rect class="cls-1" x="39.22" y="156.87" width="9.8" height="9.8"/><rect class="cls-3" x="39.22" y="147.06" width="9.8" height="9.81"/><rect class="cls-3" x="39.22" y="137.26" width="9.8" height="9.8"/><rect class="cls-1" x="39.22" y="127.46" width="9.8" height="9.8"/><rect class="cls-3" x="39.22" y="107.85" width="9.8" height="9.8"/><rect class="cls-3" x="39.22" y="98.04" width="9.8" height="9.81"/><rect class="cls-1" x="39.22" y="78.44" width="9.8" height="9.8"/><rect class="cls-3" x="39.22" y="68.63" width="9.8" height="9.81"/><rect class="cls-3" x="39.22" y="58.83" width="9.8" height="9.8"/><rect class="cls-1" x="39.22" y="49.02" width="9.8" height="9.81"/><rect class="cls-1" x="29.41" y="147.06" width="9.81" height="9.81"/><rect class="cls-3" x="29.41" y="137.26" width="9.81" height="9.8"/><rect class="cls-3" x="29.41" y="127.46" width="9.81" height="9.8"/><rect class="cls-3" x="29.41" y="117.65" width="9.81" height="9.81"/><rect class="cls-3" x="29.41" y="107.85" width="9.81" height="9.8"/><rect class="cls-3" x="29.41" y="98.04" width="9.81" height="9.81"/><rect class="cls-3" x="29.41" y="88.24" width="9.81" height="9.8"/><rect class="cls-3" x="29.41" y="78.44" width="9.81" height="9.8"/><rect class="cls-3" x="29.41" y="68.63" width="9.81" height="9.81"/><rect class="cls-1" x="29.41" y="58.83" width="9.81" height="9.8"/><rect class="cls-1" x="19.61" y="137.26" width="9.8" height="9.8"/><rect class="cls-3" x="19.61" y="127.46" width="9.8" height="9.8"/><rect class="cls-2" x="19.61" y="117.65" width="9.8" height="9.81"/><rect class="cls-2" x="19.61" y="107.85" width="9.8" height="9.8"/><rect class="cls-2" x="19.61" y="98.04" width="9.8" height="9.81"/><rect class="cls-2" x="19.61" y="88.24" width="9.8" height="9.8"/><rect class="cls-3" x="19.61" y="78.44" width="9.8" height="9.8"/><rect class="cls-1" x="19.61" y="68.63" width="9.8" height="9.81"/><rect class="cls-1" x="9.81" y="127.46" width="9.8" height="9.8"/><rect class="cls-2" x="9.81" y="117.65" width="9.8" height="9.81"/><rect class="cls-2" x="9.81" y="107.85" width="9.8" height="9.8"/><rect class="cls-2" x="9.81" y="98.04" width="9.8" height="9.81"/><rect class="cls-2" x="9.81" y="88.24" width="9.8" height="9.8"/><rect class="cls-1" x="9.81" y="78.44" width="9.8" height="9.8"/><rect class="cls-1" y="117.65" width="9.81" height="9.81"/><rect class="cls-1" y="107.85" width="9.81" height="9.8"/><rect class="cls-1" y="98.04" width="9.81" height="9.81"/><rect class="cls-1" y="88.24" width="9.81" height="9.8"/></g></g></svg>